<svg version="1.2" xmlns="http://www.w3.org/2000/svg" viewBox="0 0 3866 2320" width="600" height="360"><defs><clipPath clipPathUnits="userSpaceOnUse" id="cp1"><path d="m128.37 2284.57c0 0-158.81-209.64-82.97-460.98 75.84-251.34 270.66-443.4 207.81-734.23-74.63-345.33 99.16-627.57 409.56-599 559.22 51.48 891.29-328.97 1081.02-368.13 562.15-116.09 664.68 308.47 968.09 349.85 654.82 89.28 857.21 375.01 833.78 923.06-7.71 180.31 493.71 541.32 205.8 889.43z"/></clipPath><linearGradient id="P" gradientUnits="userSpaceOnUse"/><linearGradient id="g1" x1="1910.4" y1="1424" x2="1946.8" y2="1424" href="#P"><stop stop-color="#aaceff"/><stop offset="1" stop-color="#dbe9ff"/></linearGradient><linearGradient id="g2" x1="1866.5" y1="1424" x2="1902.9" y2="1424" href="#P"><stop stop-color="#aaceff"/><stop offset="1" stop-color="#dbe9ff"/></linearGradient><linearGradient id="g3" x1="1822.7" y1="1424" x2="1859.1" y2="1424" href="#P"><stop stop-color="#aaceff"/><stop offset="1" stop-color="#dbe9ff"/></linearGradient><linearGradient id="g4" x1="1778.8" y1="1424" x2="1815.2" y2="1424" href="#P"><stop stop-color="#aaceff"/><stop offset="1" stop-color="#dbe9ff"/></linearGradient><linearGradient id="g5" x1="1742.3" y1="1424" x2="1763.6" y2="1424" href="#P"><stop stop-color="#aaceff"/><stop offset="1" stop-color="#dbe9ff"/></linearGradient><linearGradient id="g6" x1="1716.5" y1="1424" x2="1737.7" y2="1424" href="#P"><stop stop-color="#aaceff"/><stop offset="1" stop-color="#dbe9ff"/></linearGradient><linearGradient id="g7" x1="1692.1" y1="1424" x2="1713.4" y2="1424" href="#P"><stop stop-color="#aaceff"/><stop offset="1" stop-color="#dbe9ff"/></linearGradient></defs><style>.a{fill:#ede3dd}.b{fill:#dbcac2}.c{fill:#faf4f0}.d{fill:#312113}.e{fill:#fff}.f{fill:#f2cd5d}.g{fill:#cc9f0e}.h{fill:#e6a19b}.i{fill:#904823}.j{fill:#6987d0}.k{fill:url(#g1)}.l{fill:url(#g2)}.m{fill:url(#g3)}.n{fill:url(#g4)}.o{fill:url(#g5)}.p{fill:url(#g6)}.q{fill:url(#g7)}.r{fill:#bcb469}.s{fill:#8c843d}.t{fill:#ff8376}</style><path class="a" d="m128.4 2284.6c0 0-158.8-209.7-83-461 75.8-251.3 270.7-443.4 207.8-734.2-74.6-345.4 100.1-636.6 409.6-599 518.5 62.9 891.3-329 1081-368.2 562.1-116.1 664.7 308.5 968.1 349.9 654.8 89.3 857.2 375 833.8 923-7.7 180.3 493.7 541.4 205.8 889.5z"/><g clip-path="url(#cp1)"><path class="b" d="m454.7 454.7v-55.4h1386.3v55.4z"/><path class="b" d="m454.7 875.9v-55.4h1386.3v55.4z"/><path class="b" d="m454.7 1297.2v-55.5h1386.3v55.5z"/><path class="b" d="m499.1 1297.2h-55.5v-1234.3h55.5z"/><path class="b" d="m955.7 1297.2h-55.5v-1234.3h55.5z"/><path class="b" d="m1412.2 1297.2h-55.4v-1234.3h55.4z"/><path class="b" d="m1868.8 1297.2h-55.5v-1234.3h55.5z"/><path class="b" d="m891.2 1075.3c-13.9-3.8-28.6-9.5-43-11.6-22.7-3.3-30.7 12.7-39 30.1-6.3 13.3-11.1 27-16.7 40.4h16.7l-19.3 117.6h-67.5l-19.4-117.6h25.2c-15.8-12.3-32.4-22.5-53.5-22.5-20.8 0-48.4 5-59.4 24.7-1.6 3-6.8 1-5.6-2.3 11.3-30.7 26.9-51.2 62.2-47 22.6 2.7 38.4 12.7 51.7 27.1-10.2-29-20.3-58.2-33-85.9-15.7-34.1-40.9-62.3-55.8-97-1.1-2.5 1.4-6.3 4.2-4.2 30.3 22.5 58.7 49.5 73.5 85 16.1 38.5 13.9 81.3 25.8 121q0.4 0.5 0.8 1.1h8.4c-29-163.4 86.8-271.2 85.1-267.5-18.3 38.5-35.3 76.8-48.5 115.4 10.7-4.3 22.7-6.8 32.2-9.4 27.2-7.5 87-9.7 83.8-8.9-20.9 5.6-42 10.7-62.7 16.8-24.7 7.3-40.9 19.8-48.1 45.3-10 35.1-15.6 72-21.8 108.3h8.8c2.7-13.3 5.6-26.5 9.2-39.6 4.5-16.3 8-39.8 19.3-53.1 20.1-23.5 90.2 34.9 86.4 33.8z"/><path class="b" d="m2252.5 527.5c0 28.2-22.8 51-51 51-28.1 0-51-22.8-51-51h-150.9c103.6-78 165.1-149.1 190-180.8v-244.5h26.1v244.5c25 31.7 86.4 102.8 190 180.8z"/><path class="b" d="m2891.9 797.2c0 28.2-22.9 51-51 51-28.2 0-51-22.8-51-51h-150.9c103.6-78 165-149.2 190-180.8v-411.7h26.1v411.7c25 31.6 86.4 102.8 190 180.8z"/><path fill-rule="evenodd" class="b" d="m3911.4 516.8v780.4h-780.4v-780.4zm-116.7 116.7h-546.9v546.9h546.9z"/><path fill-rule="evenodd" class="b" d="m3066.9 932.7v275.4h-275.5v-275.4zm-41.1 41.2h-193.1v193h193.1z"/><path fill-rule="evenodd" class="b" d="m2729.2 932.7v275.4h-275.4v-275.4zm-41.2 41.2h-193v193h193z"/></g><path fill-rule="evenodd" class="c" d="m3428.1 1166.1c-14.7 26-33.7 48.8-55.9 67.7l24.9 58.4-88.4 47-34.5-53.3c-28.1 7.8-57.5 10.9-87.4 8.5l-23.7 58.8-95.8-29.3 13.2-62c-26-14.7-48.8-33.7-67.8-55.9l-58.3 24.8-47-88.3 53.2-34.5c-7.8-28.1-10.8-57.6-8.5-87.4l-58.7-23.8 29.2-95.8 62 13.3c14.8-26.1 33.8-48.9 55.9-67.8l-24.8-58.3 88.4-47 34.4 53.2c28.1-7.8 57.7-10.8 87.5-8.5l23.7-58.8 95.8 29.3-13.2 62c26.1 14.8 48.8 33.8 67.7 55.9l58.4-24.8 47 88.4-53.3 34.4c7.8 28.1 10.9 57.6 8.5 87.5l58.8 23.7-29.3 95.8zm-48.8-73.1c29.2-95.4-24.6-196.5-120.1-225.7-95.4-29.2-196.5 24.6-225.7 120-29.1 95.5 24.6 196.6 120.1 225.8 95.4 29.2 196.5-24.6 225.7-120.1z"/><path class="d" d="m2932.5 1015l-41.9-16.9 22.1-72.2 4.3 1.3-20.9 68.3 38.1 15.4z"/><path class="d" d="m3069.4 1324.4l-4.3-0.9 12.9-60.4c-29.9-15.1-52.8-40.4-53-40.6l3.3-3c0.2 0.3 23.4 25.7 53.2 40.4l1.5 0.8z"/><path class="d" d="m3308.2 1192.2l-2.5-3.6c116.3-81.7 69.7-206.2 69.2-207.5l4.1-1.6c0.5 1.3 48.4 129-70.8 212.7z"/><path class="d" d="m3459 1020.8c-3.2-26.1-8.9-47.7-9-47.9l-0.4-1.6 19.5-12.6 2.4 3.7-16.8 10.9c1.4 5.5 5.9 24.6 8.7 46.9z"/><path fill-rule="evenodd" class="d" d="m3190.5 1348.8l-99.7-30.5 13.3-62.4c-7.5-4.2-42.3-24.6-66.1-54.4l-58.6 25-48.9-92 53.5-34.7c-2.2-7.8-11.5-43.2-8.2-85.1l-59.2-23.8 30.5-99.7 62.4 13.3c4.7-8.1 28-47.1 54.4-66.1l-25-58.6 92-48.9 34.6 53.4c7.6-2.6 39.4-12.4 85.2-8.1l23.9-59.2 99.7 30.5-13.4 62.4c7.7 4.3 43.2 24.9 66.1 54.4l58.6-25 48.9 92-53.5 34.7c2.5 7.8 12.5 42.4 8.2 85.1l59.2 23.9-30.5 99.7-62.4-13.3c-3.8 7.3-21.9 39.4-54.4 65.9l25 58.7-92 48.9-34.6-53.4c-7.8 2.8-41.6 13.4-85.2 8.2zm-94.6-33.5l92 28.1 23.6-58.6 1.7 0.3c49.4 6.4 86-8.2 86.4-8.3l1.7-0.7 34.4 53 84.8-45.1-24.7-58 1.3-1.1c36.9-29.5 55.1-66.7 55.3-67l0.8-1.6 61.7 13.2 28.1-92-58.5-23.6 0.2-1.6c5.2-48.3-8.2-86.2-8.3-86.6l-0.6-1.6 53-34.3-45.1-84.9-58.1 24.8-1-1.4c-24.9-33-66.7-55.1-67.1-55.3l-1.5-0.8 13.2-61.7-92-28.1-23.6 58.5-1.7-0.2c-51.4-5.2-86.1 8.2-86.4 8.3l-1.7 0.7-34.4-53.1-84.8 45.1 24.7 58.2-1.4 1c-28.7 19.8-55 66.6-55.3 67.1l-0.8 1.4-61.7-13.1-28.1 92 58.5 23.5-0.1 1.7c-4.1 47.1 8.2 86.2 8.3 86.6l0.5 1.6-52.9 34.3 45.1 84.9 58.1-24.8 1 1.4c26 33.4 66.7 55.1 67.1 55.3l1.5 0.8z"/><path fill-rule="evenodd" class="d" d="m3232.5 1216c-101 0-183.1-82.1-183.1-183.1 0-101 82.1-183.1 183.1-183.1 101 0 183.1 82.1 183.1 183.1 0 101-82.1 183.1-183.1 183.1zm0-361.8c-98.5 0-178.7 80.2-178.7 178.7 0 98.6 80.2 178.7 178.7 178.7 98.6 0 178.7-80.1 178.7-178.7 0-98.5-80.1-178.7-178.7-178.7z"/><path fill-rule="evenodd" class="e" d="m1495.1 1815.6c-14.4 25.4-33 47.7-54.6 66.2l24.2 57-86.3 45.9-33.6-52c-27.5 7.6-56.2 10.6-85.4 8.3l-23.2 57.4-93.5-28.6 12.9-60.5c-25.4-14.4-47.7-33-66.2-54.6l-57 24.2-45.9-86.3 52-33.6c-7.6-27.5-10.5-56.4-8.3-85.4l-57.4-23.2 28.6-93.6 60.6 13c14.4-25.5 32.9-47.7 54.6-66.2l-24.3-57 86.3-45.9 33.7 52c27.4-7.6 56.3-10.5 85.4-8.3l23.1-57.4 93.6 28.6-12.9 60.6c25.5 14.4 47.6 32.9 66.1 54.5l57-24.2 45.9 86.3-52 33.6c7.6 27.5 10.6 56.3 8.3 85.5l57.4 23.1-28.6 93.6zm-47.7-71.4c28.5-93.2-24-191.9-117.2-220.4-93.2-28.5-191.9 24-220.4 117.2-28.5 93.2 23.9 192 117.2 220.4 93.2 28.6 191.9-23.9 220.4-117.2z"/><path class="d" d="m1011 1668.1l-40.8-16.4 21.5-70.6 4.2 1.3-20.4 66.7 37.2 15z"/><path class="d" d="m1144.8 1970.3l-4.3-0.9 12.6-59c-29.1-14.8-51.5-39.4-51.7-39.7l3.2-2.9c0.2 0.3 22.8 25.2 51.9 39.5l1.5 0.8z"/><path class="d" d="m1378 1841.2l-2.5-3.6c113.6-79.8 68.1-201.3 67.6-202.6l4-1.5c0.5 1.2 47.3 125.9-69.1 207.7z"/><path class="d" d="m1525.3 1673.8c-3.2-25.5-8.8-46.6-8.9-46.8l-0.4-1.5 19.1-12.4 2.4 3.7-16.5 10.6c1.3 5.3 5.8 24 8.6 45.8z"/><path fill-rule="evenodd" class="d" d="m1263 1994.1l-97.4-29.7 13-61c-7.3-4.1-41.3-24-64.5-53.1l-57.3 24.4-47.7-89.8 52.3-33.9c-2.2-7.7-11.3-42.2-8-83.1l-57.8-23.4 29.7-97.3 61 13c4.5-7.9 27.3-46 53-64.6l-24.3-57.2 89.8-47.7 33.8 52.2c7.4-2.6 38.5-12.2 83.2-8l23.3-57.8 97.4 29.8-13 60.9c7.4 4.2 42.1 24.4 64.4 53.2l57.3-24.4 47.8 89.8-52.3 33.8c2.5 7.7 12.2 41.5 8 83.2l57.8 23.3-29.7 97.3-61-12.9c-3.7 7.1-21.4 38.5-53.1 64.4l24.4 57.3-89.8 47.8-33.9-52.2c-7.6 2.7-40.6 13.1-83.2 8zm-92.3-32.7l89.8 27.4 23.1-57.2 1.6 0.2c48.2 6.3 84-7.9 84.4-8.1l1.6-0.6 33.6 51.8 82.9-44.1-24.2-56.7 1.3-1c36-28.8 53.9-65.1 54-65.5l0.8-1.5 60.3 12.9 27.4-89.8-57.1-23.1 0.2-1.6c5.1-47.1-8-84.1-8.2-84.5l-0.6-1.6 51.8-33.5-44-82.9-56.8 24.2-1-1.4c-24.3-32.2-65.1-53.8-65.5-54l-1.4-0.7 12.8-60.3-89.8-27.5-23 57.2-1.6-0.2c-50.2-5.1-84.2 8-84.5 8.1l-1.6 0.7-33.6-51.8-82.9 44 24.2 56.8-1.4 1c-28 19.3-53.7 65.1-54 65.5l-0.8 1.4-60.2-12.8-27.4 89.8 57.1 23-0.2 1.6c-4 46.1 8.1 84.2 8.2 84.6l0.5 1.6-51.7 33.5 44.1 82.8 56.7-24.1 1 1.3c25.3 32.6 65.1 53.8 65.5 54l1.4 0.8z"/><path fill-rule="evenodd" class="d" d="m1304 1864.4c-98.6 0-178.8-80.2-178.8-178.8 0-98.6 80.2-178.8 178.8-178.8 98.6 0 178.9 80.2 178.9 178.8 0 98.6-80.3 178.8-178.9 178.8zm0-353.3c-96.2 0-174.5 78.3-174.5 174.5 0 96.3 78.3 174.6 174.5 174.6 96.3 0 174.6-78.3 174.6-174.6 0-96.2-78.3-174.5-174.6-174.5z"/><path class="e" d="m2740.2 2216.7v-409.5h39.2v409.5c0 7.7-6.2 14-14 14h-11.2c-7.7 0-14-6.3-14-14z"/><path class="e" d="m2705.8 1783.3h108c5.4 0 10.3 3.1 12.6 8l0.5 1.1c4.2 9.2-2.5 19.6-12.6 19.6h-109c-10.1 0-16.8-10.4-12.5-19.6l0.5-1.1c2.2-4.9 7.1-8 12.5-8z"/><path fill-rule="evenodd" class="d" d="m2691.6 1807c-3-4.7-3.4-10.6-1.1-15.6l0.5-1.1c2.7-5.8 8.5-9.5 14.8-9.5h108c6.4 0 12.2 3.7 14.8 9.5l0.5 1.1c2.4 5 2 10.9-1.1 15.6-3 4.7-8.1 7.5-13.7 7.5h-109c-5.6 0-10.7-2.8-13.7-7.5zm14.2-21.2c-4.4 0-8.4 2.6-10.3 6.6l-0.5 1c-1.6 3.6-1.3 7.6 0.8 10.9 2.1 3.3 5.6 5.2 9.5 5.2h109c3.9 0 7.5-1.9 9.6-5.2 2-3.3 2.3-7.3 0.7-10.9l-0.5-1c-1.8-4-5.9-6.6-10.3-6.6z"/><path class="f" d="m3107 1540.3c-19.9 116.2-83.6 251.4-350.1 251.4-266.6 0-365.5-104.4-365.5-131.9 0-27.5 106 12.2 164.2-58.2 58.2-70.4-36.6-325.1-36.6-437.8 0-112.6 310.5-107.1 401.1-107.1 46.6 0 129.8-6.9 184.1 82.4 51.3 84.3 24.8 272.9 2.8 401.2z"/><path class="g" d="m2756.9 1791.7c-266.6 0-365.5-104.4-365.5-131.9 0-27.5 106 12.2 164.2-58.2 58.2-70.4-36.6-325.1-36.6-437.8 0-78.9 152.5-99.9 274.9-105.3 128.7 0 163.8 151.4 173.5 181.3 11.8 36.7-30.7 59.3-27.1 97.3 3.8 39.8 24.5 41.1 28.6 80.7 3.9 38.5-29.4 79.9-17.5 117 11.1 34.3 60.6 40.8 63.9 77.1 3 33.2-239.8 179.8-258.4 179.8z"/><path class="d" d="m2500.4 1686.9l1.4-4.8c181.6 57.3 307.2 41.3 380.6 17.9 79.5-25.4 116.6-64.9 117-65.3l3.6 3.4c-0.3 0.4-38.1 40.6-118.7 66.5-36.7 11.8-86.4 21.7-149.4 21.7-64.2 0-142.2-10.3-234.5-39.4z"/><path fill-rule="evenodd" class="d" d="m2958.3 1525.3c0-8.3 6.7-15 15-15 8.2 0 14.9 6.7 14.9 15 0 8.2-6.7 14.9-14.9 14.9-8.3 0-15-6.7-15-14.9zm5 0c0 5.5 4.5 10 10 10 5.5 0 10-4.5 10-10 0-5.5-4.5-10-10-10-5.5 0-10 4.5-10 10z"/><path fill-rule="evenodd" class="d" d="m2809.5 1525.3c0-8.3 6.7-15 14.9-15 8.3 0 15 6.7 15 15 0 8.2-6.7 14.9-15 14.9-8.2 0-14.9-6.7-14.9-14.9zm4.9 0c0 5.5 4.5 10 10 10 5.5 0 10-4.5 10-10 0-5.5-4.5-10-10-10-5.5 0-10 4.5-10 10z"/><path fill-rule="evenodd" class="d" d="m2660.6 1525.3c0-8.3 6.7-15 15-15 8.2 0 15 6.7 15 15 0 8.2-6.8 14.9-15 14.9-8.3 0-15-6.7-15-14.9zm5 0c0 5.5 4.5 10 10 10 5.5 0 10-4.5 10-10 0-5.5-4.5-10-10-10-5.5 0-10 4.5-10 10z"/><path fill-rule="evenodd" class="d" d="m2734.1 1596c0-8.2 6.7-15 15-15 8.2 0 15 6.8 15 15 0 8.3-6.8 15-15 15-8.3 0-15-6.7-15-15zm5 0c0 5.5 4.5 10 10 10 5.5 0 10-4.5 10-10 0-5.5-4.5-10-10-10-5.5 0-10 4.5-10 10z"/><path fill-rule="evenodd" class="d" d="m2893.7 1433.8c0-8.3 6.7-15 15-15 8.2 0 15 6.7 15 15 0 8.2-6.8 15-15 15-8.3 0-15-6.8-15-15zm5 0c0 5.5 4.5 10 10 10 5.5 0 10-4.5 10-10 0-5.5-4.5-10-10-10-5.5 0-10 4.5-10 10z"/><path fill-rule="evenodd" class="d" d="m3051.3 1433.8c0-8.3 6.7-15 14.9-15 8.3 0 15 6.7 15 15 0 8.2-6.7 15-15 15-8.2 0-14.9-6.8-14.9-15zm4.9 0c0 5.5 4.5 10 10 10 5.5 0 10-4.5 10-10 0-5.5-4.5-10-10-10-5.5 0-10 4.5-10 10z"/><path fill-rule="evenodd" class="d" d="m2744.9 1433.8c0-8.3 6.7-15 15-15 8.2 0 14.9 6.7 14.9 15 0 8.2-6.7 15-14.9 15-8.3 0-15-6.8-15-15zm5 0c0 5.5 4.4 10 10 10 5.5 0 9.9-4.5 9.9-10 0-5.5-4.4-10-9.9-10-5.6 0-10 4.5-10 10z"/><path fill-rule="evenodd" class="d" d="m2596 1433.8c0-8.3 6.8-15 15-15 8.3 0 15 6.7 15 15 0 8.2-6.7 15-15 15-8.2 0-15-6.8-15-15zm5 0c0 5.5 4.5 10 10 10 5.5 0 10-4.5 10-10 0-5.5-4.5-10-10-10-5.5 0-10 4.5-10 10z"/><path fill-rule="evenodd" class="d" d="m2958.3 1342.3c0-8.2 6.7-15 15-15 8.2 0 14.9 6.8 14.9 15 0 8.3-6.7 15-14.9 15-8.3 0-15-6.7-15-15zm5 0c0 5.5 4.5 10 10 10 5.5 0 10-4.5 10-10 0-5.5-4.5-10-10-10-5.5 0-10 4.5-10 10z"/><path fill-rule="evenodd" class="d" d="m2809.5 1342.3c0-8.2 6.7-15 14.9-15 8.3 0 15 6.8 15 15 0 8.3-6.7 15-15 15-8.2 0-14.9-6.7-14.9-15zm4.9 0c0 5.5 4.5 10 10 10 5.5 0 10-4.5 10-10 0-5.5-4.5-10-10-10-5.5 0-10 4.5-10 10z"/><path fill-rule="evenodd" class="d" d="m2660.6 1342.3c0-8.2 6.7-15 15-15 8.2 0 15 6.8 15 15 0 8.3-6.8 15-15 15-8.3 0-15-6.7-15-15zm5 0c0 5.5 4.5 10 10 10 5.5 0 10-4.5 10-10 0-5.5-4.5-10-10-10-5.5 0-10 4.5-10 10z"/><path fill-rule="evenodd" class="d" d="m2893.7 1250.8c0-8.2 6.7-14.9 15-14.9 8.2 0 15 6.7 15 14.9 0 8.3-6.8 15-15 15-8.3 0-15-6.7-15-15zm5 0c0 5.5 4.5 10 10 10 5.5 0 10-4.5 10-10 0-5.5-4.5-10-10-10-5.5 0-10 4.5-10 10z"/><path fill-rule="evenodd" class="d" d="m3051.3 1250.8c0-8.2 6.7-14.9 14.9-14.9 8.3 0 15 6.7 15 14.9 0 8.3-6.7 15-15 15-8.2 0-14.9-6.7-14.9-15zm4.9 0c0 5.5 4.5 10 10 10 5.5 0 10-4.5 10-10 0-5.5-4.5-10-10-10-5.5 0-10 4.5-10 10z"/><path fill-rule="evenodd" class="d" d="m2744.9 1250.8c0-8.2 6.7-14.9 15-14.9 8.2 0 14.9 6.7 14.9 14.9 0 8.3-6.7 15-14.9 15-8.3 0-15-6.7-15-15zm5 0c0 5.5 4.4 10 10 10 5.5 0 9.9-4.5 9.9-10 0-5.5-4.4-10-9.9-10-5.6 0-10 4.5-10 10z"/><path fill-rule="evenodd" class="d" d="m2596 1250.8c0-8.2 6.8-14.9 15-14.9 8.3 0 15 6.7 15 14.9 0 8.3-6.7 15-15 15-8.2 0-15-6.7-15-15zm5 0c0 5.5 4.5 10 10 10 5.5 0 10-4.5 10-10 0-5.5-4.5-10-10-10-5.5 0-10 4.5-10 10z"/><path fill-rule="evenodd" class="d" d="m2958.3 1137.8c0-8.2 6.7-14.9 15-14.9 8.2 0 14.9 6.7 14.9 14.9 0 8.3-6.7 15-14.9 15-8.3 0-15-6.7-15-15zm5 0c0 5.5 4.5 10 10 10 5.5 0 10-4.5 10-10 0-5.5-4.5-10-10-10-5.5 0-10 4.5-10 10z"/><path fill-rule="evenodd" class="d" d="m2809.5 1137.8c0-8.2 6.7-14.9 14.9-14.9 8.3 0 15 6.7 15 14.9 0 8.3-6.7 15-15 15-8.2 0-14.9-6.7-14.9-15zm4.9 0c0 5.5 4.5 10 10 10 5.5 0 10-4.5 10-10 0-5.5-4.5-10-10-10-5.5 0-10 4.5-10 10z"/><path fill-rule="evenodd" class="d" d="m2660.6 1137.8c0-8.2 6.7-14.9 15-14.9 8.2 0 15 6.7 15 14.9 0 8.3-6.8 15-15 15-8.3 0-15-6.7-15-15zm5 0c0 5.5 4.5 10 10 10 5.5 0 10-4.5 10-10 0-5.5-4.5-10-10-10-5.5 0-10 4.5-10 10z"/><path class="d" d="m2748.4 1812.8h5v399.8h-5z"/><path class="d" d="m2658.2 2245.9c0-19.6 16-35.5 35.6-35.5h132c19.6 0 35.5 15.9 35.5 35.5v23.4h-5v-23.4c0-16.8-13.7-30.5-30.5-30.5h-132c-16.9 0-30.6 13.7-30.6 30.5v27.9h-5z"/><path class="d" d="m2607.5 2245.9c0-19.6 15.9-35.5 35.5-35.5h233.5c19.6 0 35.6 15.9 35.6 35.5v23.4h-5v-23.4c0-16.8-13.7-30.5-30.6-30.5h-233.5c-16.9 0-30.6 13.7-30.6 30.5v27.9h-4.9z"/><path class="d" d="m2660.8 2252.4c9.1 0 16.5 7.4 16.5 16.5 0 9.2-7.4 16.6-16.5 16.6-9.2 0-16.6-7.4-16.6-16.6 0-9.1 7.4-16.5 16.6-16.5z"/><path class="d" d="m2610.9 2252.4c9.1 0 16.5 7.4 16.5 16.5 0 9.2-7.4 16.6-16.5 16.6-9.2 0-16.6-7.4-16.6-16.6 0-9.1 7.4-16.5 16.6-16.5z"/><path class="d" d="m2909.9 2252.4c9.1 0 16.5 7.4 16.5 16.5 0 9.2-7.4 16.6-16.5 16.6-9.1 0-16.5-7.4-16.5-16.6 0-9.1 7.4-16.5 16.5-16.5z"/><path class="d" d="m2857.8 2252.4c9.1 0 16.5 7.4 16.5 16.5 0 9.2-7.4 16.6-16.5 16.6-9.1 0-16.5-7.4-16.5-16.6 0-9.1 7.4-16.5 16.5-16.5z"/><path class="h" d="m2144.8 1226.8c-4.1 11-29.1 17.8-34.5 22.2-5.3 4.5-14.8 13.8-18.4 18-3.7 4.2-7.8 11.8-10.9 3.4-3.2-8.4 5.6-25.2 10.8-36.6 5.3-11.4 21.1-31.1 21.1-31.1 0 0 36 13.1 31.9 24.1z"/><path class="h" d="m2068.2 1223.8c-7.3-19.3-13.6-51.2-13.6-51.2 0 0 275.6 9.7 353 7.9 24.8-0.7 90.8 105-11.2 129.2-80.4 19.2-232.6-87.4-300.3-79.6-13 1.5-26.5-2.6-27.9-6.3z"/><path class="h" d="m2137.4 1188.3c0 0-21.4 38.2-52 27-32.8-12.1-116.3 5.5-109.8-18.5 4.8-17.7 17.5-32.4 78.2-24.4 45.2 6 83.6 15.9 83.6 15.9z"/><path class="h" d="m2027.1 1177.5c18.6 1.9 64.8 38.7 64.8 38.7 0 0-36 1.6-22.9 27.1 6 11.9 23.6 16.4 19.7 23.3-4.8 8.5-23.7-2.1-48.5 0.8-22.4 2.6-57.8-11.6-61.8-19.9-6.6-14.2-4.3-37.7-2.8-50.7 1.7-14.2 37.8-20.7 51.5-19.3z"/><path class="d" d="m2039.9 1265.7l-2.5-52.9c0 0-4.3 34.1 2.5 52.9z"/><path class="d" d="m1997.7 1261.1l-7.9-52.5c0 0-0.8 34.4 7.9 52.5z"/><path class="d" d="m2020.1 1266.8l-10.2-61.6c0 0 1.3 43.3 10.2 61.6z"/><path class="e" d="m2500.5 867.1c35.2 3.9 89.2 46.4 89.2 122.1-0.1 75.7-41.1 249.4-89.1 367.4 0 0-98.4-56.8-170.8-176.1 0 0 18.3-153.8 49-218.4 30.8-64.5 82.9-99.3 121.7-95z"/><path class="h" d="m2411 2120.7l-84.1 35.5-67.4-100.1 105.3-44.6z"/><path class="i" d="m2300.1 2125.1c0 0 18.9-16.3 48.5-1.8 29.6 14.5 33.2-7.4 38.4-12.7 5.2-5.3 12.8-10.5 24.6-10.4 0 0 27.1 103.7 19.4 184.4h-279.4c0 0-8.7-28.1 15.5-41.1 24.1-12.9 130-43.6 144-70.9 14.1-27.4-11-47.5-11-47.5z"/><path class="d" d="m2382.1 2264.8h-5.1c0-54.9 49.4-72.9 50-73.1l1.7 4.9c-1.9 0.7-46.6 17-46.6 68.2z"/><path class="d" d="m2432.8 2259c0.3 10.1-1.5 18.9-1.8 25.6h-279.4c0 0-4-13.2 1.1-25.6z"/><path class="d" d="m2285.8 2222.4l-33.3-9.2 1.3-5 32.2 8.9c6.2-1.2 60.1-12.7 65.5-35.4 5.7-24.3-15.3-49.2-15.5-49.5l4-3.3c0.9 1.1 22.8 27.1 16.5 54-6.4 27.2-67.5 38.9-70.1 39.4z"/><path class="d" d="m2314.9 2205.7l-29.2-10 1.7-4.9 29.2 10z"/><path class="d" d="m2338.9 2188.1l-29.2-10 1.7-4.9 29.2 10z"/><path class="j" d="m2297.2 1739c21.6 73.4 110.9 318.7 110.9 318.7-97.9 119.6-278 121-278 121 0 0-27.8-117-48.7-199-20.9-81.9-43-191.7-50.7-254.8-13.8-113 244.9-59.4 266.5 14.1z"/><path class="j" d="m2588.9 1681.5c-66.3-2.2-371.3 175.3-493.7 123.7-65.7-27.6-106.3-161.7-19.2-230.4 57-45 323.5-133.2 389.8-144.5 66.2-11.3 239.8 255.1 123.1 251.2z"/><path class="d" d="m2372.6 2087.7c-12.4-34.5-25.3-68.2-37.8-100.7-42.4-110.3-75.8-197.5-57.7-234.3 4-8.1 10.5-13.6 19.4-16.2 60.8-18.2 279.7-85.8 281.9-86.4l1.6 4.9c-2.2 0.7-221.2 68.3-282.1 86.4-7.5 2.3-12.8 6.7-16.2 13.6-17.1 34.8 17.7 125.3 57.9 230.1 12.5 32.6 25.4 66.3 37.8 100.9z"/><path class="d" d="m2136.6 2162.9l-5.1-0.8c0.2-1 16.1-99.1 12.9-181l5.2-0.2c3.2 82.5-12.8 181-13 182z"/><path class="h" d="m2695.8 2120.7l-84.1 35.5-67.3-100.1 105.3-44.6z"/><path class="i" d="m2585 2125.1c0 0 18.9-16.3 48.5-1.8 29.6 14.5 33.2-7.4 38.4-12.7 5.2-5.3 12.8-10.5 24.5-10.4 0 0 27.2 103.7 19.5 184.4h-279.5c0 0-8.6-28.1 15.5-41.1 24.2-12.9 130-43.6 144.1-70.9 14-27.4-11-47.5-11-47.5z"/><path class="d" d="m2667 2264.8h-5.2c0-54.9 49.5-72.9 50-73.1l1.7 4.9c-1.9 0.7-46.5 17-46.5 68.2z"/><path class="d" d="m2717.7 2259c0.3 10.1-1.5 18.9-1.8 25.6h-279.5c0 0-4-13.2 1.2-25.6z"/><path class="d" d="m2570.7 2222.4l-33.4-9.2 1.4-5 32.2 8.9c6.2-1.2 60.1-12.7 65.4-35.4 5.8-24.3-15.2-49.2-15.4-49.5l3.9-3.3c1 1.1 22.9 27.1 16.6 54-6.5 27.2-67.6 38.9-70.1 39.4z"/><path class="d" d="m2599.7 2205.7l-29.1-10 1.6-4.9 29.2 10z"/><path class="d" d="m2623.8 2188.1l-29.2-10 1.7-4.9 29.2 10z"/><path class="j" d="m2582.1 1739c21.6 73.4 110.9 318.7 110.9 318.7-98 119.6-278 121-278 121 0 0-27.8-117-48.7-199-20.9-81.9-43-191.7-50.7-254.8-13.8-113 244.9-59.4 266.5 14.1z"/><path class="j" d="m2827.7 1688.3c-63 15.5-325.2 168.5-447.7 116.9-65.7-27.6-106.2-161.7-19.1-230.4 57-45 265.5-144.5 475.5-144.5 137.5 0 102.3 230.5-8.7 258z"/><path class="d" d="m2657.4 2087.7c-12.3-34.5-25.3-68.2-37.8-100.8-42.3-110.3-75.7-197.4-57.6-234.2 4-8.1 10.5-13.6 19.3-16.2 60.8-18.1 281-111.3 283.2-112.2l2.1 4.7c-2.3 1-222.8 94.2-283.8 112.4-7.5 2.3-12.8 6.7-16.2 13.6-17.1 34.8 17.6 125.3 57.8 230.1 12.6 32.6 25.5 66.3 37.9 100.9z"/><path class="d" d="m2549.3 2002.8c-0.4-0.6-42.5-62.7-89-102.6l3.3-4c47.1 40.4 89.6 103.1 90 103.8z"/><path class="d" d="m2312.5 1647.9c-1.8-90.5 177.9-152 185.6-154.6l1.6 4.9c-1.8 0.6-183.7 62.8-182 149.6z"/><path class="e" d="m2730.2 883.6c119.8 69.7 211.9 690.4 211.9 690.4-128.4 21.4-304.3-100.4-415.1-80.9-105.2 18.5-162.9-36.3-162.9-36.3 27.7-50.1-7.5-307.2 5.3-420.1 23.2-205.2 240.9-222.7 360.8-153.1z"/><path class="h" d="m2573.5 716.2l35.3 132.5c-81.2 69.7-110.3 27.1-115.7 18.9l-20.6-91.6c63.4-33.2 101-59.8 101-59.8z"/><path class="d" d="m2579.3 751.5c0.2-0.3 6.6 38.8 6.6 38.8-16.8 57.9-103.9 57.6-103.9 57.6 9.5-42.4 36.8-44.7 97.3-96.4z"/><path class="h" d="m2412.3 738.2c-6.6-40.5-4.1-73.7 34.1-88.8 11.6-4.5 43.9-14.1 57.8-11.7 32.9 5.7 49.2 40.3 68.6 78.1 6.2 12.1 12.4 38.2 9.7 48.9-7.6 30-56.3 81-86.7 86.4-53.8 9.5-76-67.4-83.5-112.9z"/><path class="d" d="m2463.9 786.8c-3-0.3-18.4-2.1-21.8-8.6-0.8-1.4-1.3-3.7 0.2-6.4 8.6-15.8 3.1-34.1 1.9-37.7-2.2-1.7-11.5-7.7-23.4-1.3l-2.4-4.6c16.6-8.9 29.5 2.3 29.7 2.4l0.4 0.4 0.3 0.6c0.3 1 8.7 23.1-2 42.7-0.5 0.9-0.3 1.2-0.2 1.5 1.6 2.9 11.6 5.2 17.8 5.8z"/><path class="h" d="m2574.6 690c15.7-2.6 30.7 8 33.3 23.7 2.7 15.7-7.9 30.7-23.6 33.3-15.8 2.7-30.7-7.9-33.4-23.6-2.6-15.8 8-30.7 23.7-33.4z"/><path class="d" d="m2585.2 738.5c-1.2 0-2.5-0.3-3.8-1-4.3-2.4-3.1-7.1-2.2-10.2 1-3.8 1.1-5.2-0.3-6.2-0.8-0.5-1.9-1-3-1.4-2.9-1.4-6.3-2.9-7.2-6.2-0.6-2.1 0-4.4 1.7-6.9 6-8.6 15.8-6.5 16.3-6.4l-1.1 5c-0.3 0-7-1.3-10.9 4.3-0.8 1.1-1.2 2.1-1 2.6 0.2 1 2.6 2.1 4.4 2.9 1.3 0.6 2.6 1.2 3.6 1.8 4.8 3.2 3.4 8.4 2.5 11.8-0.9 3.1-0.9 4-0.3 4.3 3.2 1.8 7.9-3.7 7.9-3.8l4 3.3c-2.1 2.6-6.2 6.1-10.6 6.1z"/><path class="d" d="m2465.4 809.6c-3.7 0-6-0.2-6.3-0.3l0.5-5.1c0.2 0 24.3 2.3 41.7-8.9l2.8 4.3c-13.4 8.7-29.8 10-38.7 10z"/><path class="d" d="m2496.8 734.2q0.2 0.6 0.3 1.2c0.7 4.2-2.1 8.1-6.3 8.8-4.2 0.7-8.2-2.1-8.9-6.3-0.3-1.7 0.1-3.5 0.9-4.9 4.6 1 9.3 1.4 14 1.2z"/><path class="d" d="m2441.9 743.5q0.2 0.6 0.3 1.2c0.7 4.2-2.1 8.1-6.3 8.8-4.2 0.7-8.1-2.1-8.8-6.3-0.3-1.7 0-3.5 0.8-4.9 4.6 1 9.3 1.4 14 1.2z"/><path class="d" d="m2473.5 724.7l-4.8-1.9c0.2-0.6 6.4-15.5 36.7-5.9l-1.6 5c-25.3-8.1-30.3 2.7-30.3 2.8z"/><path class="d" d="m2518.3 952.5c-36.4 0-54.6-33.1-55.4-34.5l4.6-2.4c0.2 0.3 17.5 31.7 50.8 31.7z"/><path  d="m2514.4 1462.8l-0.7-5.1c1-0.2 104.2-17.2 125.5-109.6l5 1.1c-22 95.9-128.7 113.4-129.8 113.6z"/><path class="d" d="m2495.2 662.3c-25.5 43.7-84.9 62.2-84.9 62.2l4.5 26.4c0 0-25.8-28.1-33.4-57.8-7.5-29.6 8.7-39.9 8.7-39.9 0 0-12.8-37.6 46.9-66.2 59.6-28.5 90.2 7.4 90.2 7.4 29.3-7.6 76.1 51.7 57.2 95.5 0 0-29.3-1.5-23.6 32.4-6.7 2.3-3.9 1.2-10.8 2.4l-13.3-31.8c0 0-27.6 1.4-41.5-30.6z"/><path class="e" d="m2730.8 900.2c29.3 19.9 64.5 68.9 29.1 135.7-35.5 66.9-130.6 209.9-228.2 291.8 0 0-22.8-127.9-111.7-225.5 0 0 106.7-146.6 164.1-189.3 57.4-42.7 114.4-34.7 146.7-12.7z"/><path  d="m2573.9 1193.9c-14.6 0-24.4-2.5-24.7-2.6l1.3-5c0.8 0.2 76.2 19.2 122.7-53.2l4.3 2.7c-31.6 49.4-76.1 58.1-103.6 58.1z"/><path  d="m2494 1204.1c29.8 64.5 46 120.5 36.2 125.1-9.8 4.5-42-44.1-71.8-108.6-29.8-64.6-46-120.6-36.1-125.1 9.8-4.6 41.9 44.1 71.7 108.6z"/><path class="h" d="m2183 1197.9c0 0-54.8-25.3-55.1-59.2-0.3-36.5-49.3-91.4-49.3-91.4 0 0 35.5-15 78.9 31.2 43.5 46.2 71.1 53.9 71.1 53.9z"/><path class="h" d="m2153.6 1092c7.8 17.3-13.7 74.7-13.7 74.7-5.6-4.2-23.3-30.2-27.5-31.8-2.1-0.8-13.4 3.8-26.3 12.3-10.1 6.8-12.2 9.9-20.8 1.3-12.1-11.9-26.5-26.8-28.2-30.8-3-7 39.3-48.8 39.3-48.8 0 0-50.7 35.7-74.9 38.2-6.2 0.6-12.3-9.1-7.1-12.6 38.2-25.2 87-48.4 87-48.4 0 0 63.1 26 72.2 45.9z"/><path class="d" d="m2060.8 1144.3l43.3-38.8c0 0-28.8 22.7-43.3 38.8z"/><path class="d" d="m2048.4 1131.6l47.5-49.6c0 0-34.6 32.2-47.5 49.6z"/><path class="h" d="m2419.8 1110.3c5.4-2.2 10.7-4.4 15.8-6.5 14.7 16.3 37.2 54.3 58.4 100.3q5.3 11.4 9.9 22.3c-11.6 1.8-25.4 3.4-40.5 4.8-82 8-235.6-13-284.4-35.2l37.2-64.9c0 0 114.7 16.2 203.6-20.8z"/><path  d="m2531.5 1331.4l-2.6-4.5c2.3-1.3 226.2-132.5 235.6-272.8l5.2 0.3c-9.7 143.1-235.9 275.7-238.2 277z"/><path  d="m1968.3 1431.8h373.2v10.2c0 2.4-1.9 4.3-4.3 4.3h-366.8c-1.2 0-2.1-1-2.1-2.1z"/><path class="d" d="m2295 1426h11.7v5.8h-13.1v-4.3c0-0.8 0.6-1.5 1.4-1.5z"/><path class="d" d="m2279.8 1426h11.7v5.8h-13.1v-4.3c0-0.8 0.6-1.5 1.4-1.5z"/><path class="d" d="m2264.6 1426h11.7v5.8h-13.1v-4.3c0-0.8 0.6-1.5 1.4-1.5z"/><path class="d" d="m2201.3 1426h11.7v5.8h-13.1v-4.3c0-0.8 0.6-1.5 1.4-1.5z"/><path class="d" d="m2186.1 1426h11.7v5.8h-13.1v-4.3c0-0.8 0.6-1.5 1.4-1.5z"/><path class="d" d="m2007.7 1426h11.7v5.8h-13.1v-4.3c0-0.8 0.7-1.5 1.4-1.5z"/><path class="d" d="m1992.6 1426h11.6v5.8h-13.1v-4.3c0-0.8 0.7-1.5 1.5-1.5z"/><path class="d" d="m2217 1426h43.5v5.8h-45v-4.3c0-0.8 0.7-1.5 1.5-1.5z"/><path class="d" d="m1943.2 1426h43.6v5.8h-45v-4.3c0-0.8 0.6-1.5 1.4-1.5z"/><path class="d" d="m2024.4 1426h154.9v5.8h-156.4v-4.3c0-0.8 0.7-1.5 1.5-1.5z"/><path class="k" d="m1946.8 1427.5v4.3h-36.4v-2.5c0-1.8 1.5-3.3 3.2-3.3h31.8c0.8 0 1.4 0.7 1.4 1.5z"/><path class="l" d="m1902.9 1427.5v4.3h-36.4v-2.5c0-1.8 1.5-3.3 3.3-3.3h31.7c0.8 0 1.4 0.7 1.4 1.5z"/><path class="m" d="m1859.1 1427.5v4.3h-36.4v-2.5c0-1.8 1.4-3.3 3.2-3.3h31.8c0.8 0 1.4 0.7 1.4 1.5z"/><path class="n" d="m1815.2 1427.5v4.3h-36.4v-2.5c0-1.8 1.5-3.3 3.3-3.3h31.7c0.8 0 1.4 0.7 1.4 1.5z"/><path class="o" d="m1763.6 1427.5v4.3h-21.3v-2.5c0-1.8 1.5-3.3 3.3-3.3h16.6c0.8 0 1.4 0.7 1.4 1.5z"/><path class="p" d="m1737.7 1427.5v4.3h-21.2v-2.5c0-1.8 1.4-3.3 3.2-3.3h16.6c0.8 0 1.4 0.7 1.4 1.5z"/><path class="q" d="m1713.4 1427.5v4.3h-21.3v-2.5c0-1.8 1.5-3.3 3.3-3.3h16.6c0.8 0 1.4 0.7 1.4 1.5z"/><path  d="m2067.7 1424.1c3.8 15.6-10.5 20.4-10.5 20.4l-84.6-307.2c11.9-0.1 23 8.9 26 20.5 16.3 62.6 65.9 253.2 69.1 266.3z"/><path class="e" d="m1981.3 1146.1l72.6 285.6h-411.1l-71.9-284.1c-1.4-5.3 2.7-10.5 8.1-10.5h390.8c5.4 0 10.1 3.7 11.5 9z"/><path class="d" d="m1568.6 1148.3c-0.8-3.3-0.1-6.8 2-9.5 2.1-2.7 5.3-4.3 8.7-4.3h321.9v5.4h-321.9c-1.7 0-3.4 0.8-4.4 2.2-1.1 1.4-1.5 3.2-1.1 4.9l51.6 203.6-5.3 1.3z"/><path class="e" d="m1642.1 1431.8h409.5v10.2c0 2.4-1.9 4.3-4.2 4.3h-403.2c-1.2 0-2.1-1-2.1-2.1z"/><path class="d" d="m1644.7 1429.1h335.1v5.4h-335.1z"/><path class="d" d="m1995.4 1212.5l5.2-1.3 55.7 217.9h285.2v5.4h-289.4z"/><path class="r" d="m218.3 1336c115-104 264.2 168.3 249.1 275.3l-57.1-0.3c-55.3-27.2-285.1-190.9-192-275z"/><path class="s" d="m437.4 1612.2c-83.6-155.4-219.6-272.9-220.9-274.1l3.6-4.3c1.4 1.2 138.1 119.4 222.3 275.8z"/><path class="s" d="m371.1 1505.7c-4-0.4-99.6-11.1-128.6-22.2l2-5.2c28.4 10.8 126.3 21.7 127.3 21.8z"/><path class="s" d="m302.5 1413.9l-5.2-2.1c13.5-33 16.5-86.3 16.5-86.8l5.6 0.3c-0.1 2.2-3 54.7-16.9 88.6z"/><path  d="m418 1435.8c34.6 61.7 55.5 132.2 49.4 175.5-79.4-70.1-62.1-164.1-49.4-175.5z"/><path class="r" d="m511.9 1264.9c101.7-41.4 69.4 211.5-20.5 346.6l-41.6-0.3c-20.5-34-20.3-312.7 62.1-346.3z"/><path class="s" d="m470.1 1611.9l-5.5-1.2c16.5-75 61.3-317 61.8-319.5l5.5 1.1c-0.4 2.4-45.3 244.5-61.8 319.6z"/><path class="s" d="m488.8 1529.6l-3.9-4 44.6-44.2 4 4z"/><path class="s" d="m500.8 1430.3l-50.3-35.7 3.3-4.6 50.2 35.8z"/><path class="e" d="m605.4 1612.7l-0.3 34.9c-0.2 39.6-10.7 78.5-30.3 113l-7.8 13.7-52.9 506.4-146.6-1-53.4-507.1-7.6-13.8c-19.1-34.7-29-73.8-28.8-113.4l0.3-34.9z"/><path class="d" d="m523.2 1702.8l-243.9-1.7 0.1-5.6 243.9 1.6z"/><path class="d" d="m568.4 1776.7l-87.2-0.6v-5.6l87.3 0.6z"/><path class="d" d="m372.9 2282.5h-7.9l-53.6-509.1-7.3-13.2c-19.4-35.1-29.5-74.8-29.2-114.8l0.3-37.8 330.2 2.2-0.1 5.7-324.6-2.2-0.2 32.1c-0.2 39.1 9.6 77.8 28.5 112l7.9 14.9 53.2 504.6h2.9z"/><path class="d" d="m526.9 1612.3l-5.3-2c21.2-54 102.1-79.9 105.5-81l1.7 5.4c-0.8 0.2-81.7 26.2-101.9 77.6z"/><path class="d" d="m345.7 1610.6c-0.4-0.7-38.6-76.6-92.5-88.6l1.2-5.5c56.6 12.6 94.7 88.4 96.3 91.6z"/><path class="d" d="m347.1 1613.7c-1.4-0.9-146.2-89.9-251.2-53.3l-1.9-5.4c107.6-37.4 254.6 53 256.1 54z"/><path class="d" d="m431.1 1483.4l-5.6-0.5c0.1-1.3 10.4-138.7-54.9-200.7l3.9-4.1c67.2 63.9 57.1 199.6 56.6 205.3z"/><path fill-rule="evenodd" class="d" d="m2861.1 620.6l3.7-106.9-38.4 1.9q-0.1 0-0.3 0c-17.4 0.6-34.2-5.7-47.4-17.9-14.1-13-22.6-31.7-23.3-51.3l-11.8-321.3c-1.4-39.7 28.1-73.3 65.8-74.9l484.2-19.7c17.4-0.8 34.5 5.6 47.7 17.8 14.1 13.1 22.6 31.8 23.3 51.4l11.8 321.2c1.4 39.7-28.1 73.4-65.8 75l-281.2 10.8zm9.6-112.9l-3.5 101.9 160.3-108.5 282.9-10.9c34.5-1.5 61.6-32.5 60.2-69.1l-11.7-321.2c-0.7-18.1-8.5-35.3-21.5-47.3-12-11.2-27.4-17-43.3-16.4q-0.1 0-0.3 0l-484.2 19.7c-34.6 1.5-61.6 32.5-60.3 69.1l11.8 321.2c0.6 18.1 8.5 35.3 21.5 47.3 12.1 11.3 27.6 17 43.6 16.4z"/><path class="t" d="m2765 64.1l484.2-19.7c36-1.6 66.7 28.4 68.1 66.4l11.7 321.2c1.4 38.1-27 70.5-63 72l-282 10.9-164.4 111.2 3.6-104.4-41.4 2.1c-36.1 1.5-66.7-28.4-68.1-66.5l-11.7-321.2c-1.4-38.1 26.9-70.5 63-72z"/><path class="d" d="m2776.1 525.4c-15.6 0-30.5-5.8-42.1-16.4-12.4-11.3-19.6-26.7-20.3-43.4l-8.3-187.9 3.5-0.1 8.3 187.8c0.7 15.8 7.5 30.3 19.2 41 11.6 10.6 26.7 16.1 42.5 15.4l20.1-1 0.1 3.6-20.1 0.9q-1.4 0.1-2.9 0.1z"/><path class="d" d="m2700.5 143c-1.7-46.2 22.7-63.3 23.8-64l2 3c-0.3 0.1-23.9 16.7-22.3 60.9z"/><path class="e" d="m2863.5 391.8l-1.1-16.8 84-3.4 1.1 16.8z"/><path class="e" d="m2859.7 341.3l-1.1-16.7 177.7-7.2 1 16.7z"/><path class="e" d="m2835.8 291.7l-1-16.7 142.5-5.8 1.1 16.8z"/><path class="e" d="m2956.1 388l-1-16.8 25.5-1 1 16.8z"/><path class="e" d="m3060.7 383.8l-1-16.8 84-3.4 1 16.8z"/><path class="e" d="m3056.9 333.4l-1-16.8 177.6-7.2 1.1 16.8z"/><path class="e" d="m3033.1 283.7l-1-16.7 142.5-5.8 1 16.8z"/><path class="e" d="m3153.4 380l-1-16.7 25.4-1.1 1.1 16.8z"/><path class="e" d="m2821.2 243.6l-1-16.8 84-3.4 1 16.8z"/><path class="e" d="m2817.4 193.2l-1-16.8 177.6-7.2 1 16.8z"/><path class="e" d="m2913.9 239.8l-1.1-16.7 25.5-1.1 1.1 16.8z"/><path class="e" d="m3018.5 235.6l-1-16.8 84-3.4 1 16.8z"/><path class="e" d="m3014.7 185.2l-1-16.8 177.6-7.2 1 16.8z"/><path class="e" d="m3111.1 231.8l-1-16.7 25.5-1 1 16.7z"/><path class="e" d="m2739.4 221.4l-0.6-16.3q4.9-0.5 7.4-1.8 2.5-1.3 4.2-4.3 1.7-3 2.2-7.4 0.4-3.2 0.1-11.4-0.5-13.2 0.5-18.4 1-5.3 4.1-8.6 3-3.3 9.1-5.4 4.1-1.4 13-1.7l3.6-0.2 0.7 16.3q-7.6 0.3-9.7 1.2-2.1 1-3 2.8-1 1.7-0.8 6 0.2 4.3 0 16.3 0 6.7-1.3 11-1.3 4.2-3.4 7-2.1 2.9-6.5 6 4.1 2.1 6.8 5.1 2.7 3 4.2 7.4 1.6 4.4 2.3 11.8 0.9 11.3 1 14.4 0.2 4.5 1.4 6.2 1.1 1.7 3.4 2.6 2.2 0.8 9.6 0.5l0.6 16.4-3.6 0.1q-9.2 0.4-14.1-0.9-5-1.3-8.5-4.5-3.5-3.3-4.9-8.3-1.3-4.9-1.8-15.7-0.5-12.5-1.7-16.2-1.7-5.4-4.9-7.6-3.1-2.3-9.4-2.4z"/><path class="e" d="m3296.6 359.2q-2.9 2.5-4.2 8-1 3.8-0.4 16.3 0.4 10.8-0.6 15.8-0.9 5.1-4.2 8.6-3.2 3.6-8 5.2-4.9 1.7-14.1 2.1l-3.6 0.1-0.6-16.3q7.3-0.3 9.5-1.4 2.2-1 3.2-2.8 1-1.8 0.8-6.3-0.1-3.1-0.1-14.4 0.1-7.5 1.3-12 1.2-4.5 3.6-7.7 2.4-3.2 6.4-5.6-4.7-2.8-7-5.4-2.4-2.7-4-6.8-1.6-4.1-2.2-10.8-1.1-12-1.3-16.3-0.1-4.2-1.2-5.9-1.1-1.7-3.3-2.5-2.2-0.8-9.7-0.4l-0.7-16.3 3.6-0.2q8.9-0.3 13.1 0.7 6.3 1.6 9.6 4.7 3.3 3 4.8 8.2 1.4 5.1 1.9 18.3 0.4 8.1 1 11.4 0.9 4.3 2.8 7.1 2 2.9 4.6 4 2.5 1.1 7.5 1.2l0.7 16.3q-6.3 0.6-9.2 3.1z"/><path class="d" d="m1991.2 1477.1v699l-522.6-1.1v109.7h-57v-807.6z"/><g style="mix-blend-mode:multiply"><path class="d" d="m1991.2 1477.1v123.3h-463.6l-109.5-109.5c-2.1-2.1-4.3-3.7-6.5-5v-8.8z"/></g><path class="d" d="m1313.6 1503.6v-57.3h1600.8l-1.6 57.3z"/><path  d="m2909.1 1506.1h-1598.1v-62.3h654.8v5.1h-649.7v52.1h1593z"/><path class="a" d="m2688.3 1506.1h60.9v778.4h-60.9z"/><path class="d" d="m2749.2 1506.1v69.7h-32.3v708.7h-28.6v-778.4z"/><path  d="m2719.5 2284.5h-5.2v-708.7h5.2z"/><path  d="m1409 1567.5h5.1v483.7h-5.1z"/><path  d="m1701.4 2173.5h287.2v-328h5.1v333.1h-292.3z"/><path  d="m1466.1 2189.1h5.1v79.5h-5.1z"/><path class="j" d="m2308.3 77.4v40.2h-663.4v-40.2c0-19 15.5-34.4 34.5-34.4h594.4c19 0 34.5 15.4 34.5 34.4z"/><path class="e" d="m1692 86.4c0 2.9-2.3 5.2-5.2 5.2-2.9 0-5.2-2.3-5.2-5.2 0-2.9 2.3-5.2 5.2-5.2 2.9 0 5.2 2.3 5.2 5.2z"/><path class="e" d="m1714.1 86.4c0 2.9-2.4 5.2-5.2 5.2-2.9 0-5.3-2.3-5.3-5.2 0-2.9 2.4-5.2 5.3-5.2 2.8 0 5.2 2.3 5.2 5.2z"/><path class="e" d="m1736.1 86.4c0 2.9-2.3 5.2-5.2 5.2-2.9 0-5.2-2.3-5.2-5.2 0-2.9 2.3-5.2 5.2-5.2 2.9 0 5.2 2.3 5.2 5.2z"/><path class="d" d="m1692.5 835.5l-0.2-11.7h58.6l0.2 11.7z"/><path class="d" d="m1691.3 800.3l-0.3-11.7h124l0.2 11.7z"/><path class="d" d="m1689.7 765.1l-0.3-11.8h99.5l0.2 11.8z"/><path class="d" d="m1757.2 835.5l-0.3-11.7h17.8l0.2 11.7z"/><path class="d" d="m1830.2 835.5l-0.3-11.7h58.6l0.3 11.7z"/><path class="d" d="m1828.9 800.3l-0.2-11.7h123.9l0.3 11.7z"/><path class="d" d="m1827.3 765.1l-0.2-11.8h99.4l0.3 11.8z"/><path class="d" d="m1894.8 835.5l-0.2-11.7h17.8l0.2 11.7z"/><path class="d" d="m1691.7 731.1l-0.3-11.7h58.6l0.3 11.7z"/><path class="d" d="m1690.5 695.9l-0.3-11.7h124l0.2 11.7z"/><path class="d" d="m1688.8 660.6l-0.2-11.7h99.4l0.3 11.7z"/><path class="d" d="m1756.3 731.1l-0.2-11.7h17.8l0.2 11.7z"/><path class="t" d="m1829.3 731.1l-0.2-11.7h58.6l0.3 11.7z"/><path class="d" d="m1828.1 695.9l-0.2-11.7h123.9l0.3 11.7z"/><path class="e" d="m1826.5 660.6l-0.3-11.7h99.5l0.2 11.7z"/><path class="d" d="m1894 731.1l-0.3-11.7h17.8l0.3 11.7z"/><path class="d" d="m1690.8 626.7l-0.2-11.7h58.6l0.3 11.7z"/><path class="d" d="m1689.6 591.5l-0.2-11.8h123.9l0.3 11.8z"/><path class="d" d="m1688 556.2l-0.3-11.7h99.5l0.2 11.7z"/><path class="d" d="m1755.5 626.7l-0.3-11.7h17.8l0.3 11.7z"/><path class="d" d="m1828.5 626.7l-0.2-11.7h58.6l0.2 11.7z"/><path class="d" d="m1827.3 591.5l-0.3-11.8h124l0.2 11.8z"/><path class="d" d="m1825.6 556.2l-0.2-11.7h99.4l0.3 11.7z"/><path class="d" d="m1893.1 626.7l-0.2-11.7h17.8l0.2 11.7z"/><path class="d" d="m1690 522.3l-0.2-11.7h58.6l0.2 11.7z"/><path class="d" d="m1688.8 487l-0.3-11.7h124l0.2 11.7z"/><path class="d" d="m1754.7 522.3l-0.3-11.7h17.8l0.2 11.7z"/><path class="d" d="m1827.7 522.3l-0.3-11.7h58.6l0.3 11.7z"/><path class="d" d="m1826.4 487l-0.2-11.7h123.9l0.3 11.7z"/><path class="d" d="m1824.8 451.8l-0.2-11.7h99.4l0.2 11.7z"/><path class="d" d="m1892.3 522.3l-0.2-11.7h17.8l0.2 11.7z"/><path class="d" d="m1689.2 417.9l-0.3-11.8h58.6l0.3 11.8z"/><path class="d" d="m1688 382.6l-0.3-11.7h123.9l0.3 11.7z"/><path class="d" d="m1686.3 347.4l-0.2-11.7h99.4l0.3 11.7z"/><path class="d" d="m1753.8 417.9l-0.2-11.8h17.8l0.2 11.8z"/><path class="d" d="m1826.8 417.9l-0.2-11.8h58.6l0.2 11.8z"/><path class="d" d="m1825.6 382.6l-0.2-11.7h123.9l0.3 11.7z"/><path class="d" d="m1824 347.4l-0.3-11.7h99.5l0.2 11.7z"/><path class="d" d="m1891.5 417.9l-0.3-11.8h17.8l0.3 11.8z"/><path class="d" d="m1688.3 313.4l-0.2-11.7h58.6l0.3 11.7z"/><path class="d" d="m1687.1 278.2l-0.2-11.7h123.9l0.3 11.7z"/><path class="d" d="m1685.5 243l-0.3-11.7h99.5l0.2 11.7z"/><path class="d" d="m1753 313.4l-0.3-11.7h17.8l0.3 11.7z"/><path class="d" d="m1826 313.4l-0.2-11.7h58.6l0.2 11.7z"/><path class="d" d="m1824.8 278.2l-0.3-11.7h124l0.2 11.7z"/><path class="d" d="m1823.1 243l-0.2-11.7h99.4l0.3 11.7z"/><path class="d" d="m1890.6 313.4l-0.2-11.7h17.8l0.2 11.7z"/><path class="d" d="m1687.5 209l-0.2-11.7h58.6l0.2 11.7z"/><path class="d" d="m1686.3 173.8l-0.3-11.7h124l0.2 11.7z"/><path class="d" d="m1752.1 209l-0.2-11.7h17.8l0.2 11.7z"/><path class="d" d="m1825.2 209l-0.3-11.7h58.6l0.3 11.7z"/><path class="d" d="m1823.9 173.8l-0.2-11.7h123.9l0.3 11.7z"/><path class="d" d="m1889.8 209l-0.2-11.7h17.8l0.2 11.7z"/><path class="d" d="m2003.4 835.5l-0.2-11.7h58.6l0.3 11.7z"/><path class="d" d="m2002.2 800.3l-0.2-11.7h123.9l0.3 11.7z"/><path class="d" d="m2000.6 765.1l-0.3-11.8h99.5l0.2 11.8z"/><path class="d" d="m2068.1 835.5l-0.3-11.7h17.8l0.3 11.7z"/><path class="d" d="m2141.1 835.5l-0.2-11.7h58.6l0.2 11.7z"/><path class="d" d="m2139.9 800.3l-0.3-11.7h124l0.2 11.7z"/><path class="d" d="m2138.2 765.1l-0.2-11.8h99.4l0.3 11.8z"/><path class="d" d="m2205.7 835.5l-0.2-11.7h17.8l0.2 11.7z"/><path class="d" d="m2002.6 731.1l-0.2-11.7h58.6l0.2 11.7z"/><path class="d" d="m2001.4 695.9l-0.3-11.7h124l0.2 11.7z"/><path class="d" d="m1999.7 660.6l-0.2-11.7h99.4l0.3 11.7z"/><path class="d" d="m2067.3 731.1l-0.3-11.7h17.8l0.2 11.7z"/><path class="d" d="m2140.3 731.1l-0.3-11.7h58.6l0.3 11.7z"/><path class="t" d="m2139 695.9l-0.2-11.7h123.9l0.3 11.7z"/><path class="e" d="m2137.4 660.6l-0.2-11.7h99.4l0.2 11.7z"/><path class="d" d="m2204.9 731.1l-0.2-11.7h17.8l0.2 11.7z"/><path class="d" d="m2001.8 626.7l-0.3-11.7h58.6l0.3 11.7z"/><path class="d" d="m2000.6 591.5l-0.3-11.8h124l0.2 11.8z"/><path class="d" d="m1998.9 556.2l-0.2-11.7h99.4l0.3 11.7z"/><path class="d" d="m2066.4 626.7l-0.2-11.7h17.8l0.2 11.7z"/><path class="d" d="m2139.4 626.7l-0.2-11.7h58.6l0.2 11.7z"/><path class="d" d="m2138.2 591.5l-0.2-11.8h123.9l0.3 11.8z"/><path class="d" d="m2136.6 556.2l-0.3-11.7h99.5l0.2 11.7z"/><path class="d" d="m2204.1 626.7l-0.3-11.7h17.8l0.3 11.7z"/><path class="d" d="m2000.6 974.5l-0.3-11.7h99.5l0.2 11.7z"/><path class="d" d="m2138.2 974.5l-0.2-11.7h99.4l0.3 11.7z"/><path class="d" d="m2002.6 940.5l-0.2-11.7h58.6l0.2 11.7z"/><path class="d" d="m2001.4 905.3l-0.3-11.7h124l0.2 11.7z"/><path class="d" d="m1999.7 870.1l-0.2-11.7h99.4l0.3 11.7z"/><path class="d" d="m2067.3 940.5l-0.3-11.7h17.8l0.2 11.7z"/><path class="d" d="m2140.3 940.5l-0.3-11.7h58.6l0.3 11.7z"/><path class="t" d="m2139 905.3l-0.2-11.7h123.9l0.3 11.7z"/><path class="e" d="m2137.4 870.1l-0.2-11.7h99.4l0.2 11.7z"/><path class="d" d="m2204.9 940.5l-0.2-11.7h17.8l0.2 11.7z"/><path class="d" d="m2000.9 522.3l-0.2-11.7h58.6l0.3 11.7z"/><path class="d" d="m1999.7 487l-0.2-11.7h123.9l0.3 11.7z"/><path class="d" d="m2065.6 522.3l-0.3-11.7h17.8l0.3 11.7z"/><path class="d" d="m2138.6 522.3l-0.2-11.7h58.6l0.2 11.7z"/><path class="d" d="m2137.4 487l-0.3-11.7h124l0.2 11.7z"/><path class="d" d="m2135.7 451.8l-0.2-11.7h99.4l0.3 11.7z"/><path class="d" d="m2203.2 522.3l-0.2-11.7h17.8l0.2 11.7z"/><path class="d" d="m2000.1 417.9l-0.2-11.8h58.6l0.2 11.8z"/><path class="d" d="m1998.9 382.6l-0.3-11.7h124l0.2 11.7z"/><path class="d" d="m1997.2 347.4l-0.2-11.7h99.4l0.3 11.7z"/><path class="d" d="m2064.8 417.9l-0.3-11.8h17.8l0.2 11.8z"/><path class="d" d="m2137.8 417.9l-0.3-11.8h58.6l0.3 11.8z"/><path class="d" d="m2136.5 382.6l-0.2-11.7h123.9l0.3 11.7z"/><path class="e" d="m2134.9 347.4l-0.2-11.7h99.4l0.2 11.7z"/><path class="d" d="m2202.4 417.9l-0.2-11.8h17.8l0.2 11.8z"/><path class="d" d="m1999.3 313.4l-0.3-11.7h58.6l0.3 11.7z"/><path class="d" d="m1998 278.2l-0.2-11.7h123.9l0.3 11.7z"/><path class="d" d="m1996.4 243l-0.2-11.7h99.4l0.3 11.7z"/><path class="d" d="m2063.9 313.4l-0.2-11.7h17.8l0.2 11.7z"/><path class="d" d="m2136.9 313.4l-0.2-11.7h58.6l0.2 11.7z"/><path class="d" d="m2135.7 278.2l-0.2-11.7h123.9l0.2 11.7z"/><path class="d" d="m2134.1 243l-0.3-11.7h99.5l0.2 11.7z"/><path class="d" d="m2201.6 313.4l-0.3-11.7h17.8l0.3 11.7z"/><path class="d" d="m1998.4 209l-0.2-11.7h58.6l0.3 11.7z"/><path class="d" d="m1997.2 173.8l-0.2-11.7h123.9l0.3 11.7z"/><path class="d" d="m2063.1 209l-0.3-11.7h17.8l0.3 11.7z"/><path class="d" d="m2136.1 209l-0.3-11.7h58.7l0.2 11.7z"/><path class="t" d="m2134.9 173.8l-0.3-11.7h124l0.2 11.7z"/><path class="d" d="m2200.7 209l-0.2-11.7h17.8l0.2 11.7z"/><path class="d" d="m2311.1 1018.8h-5.7v-940.8c0-17.7-14.4-32.2-32.2-32.2h-593.2c-17.8 0-32.2 14.5-32.2 32.2v675.5h-5.7v-675.5c0-20.9 17-37.9 37.9-37.9h593.2c20.9 0 37.9 17 37.9 37.9z"/><path fill-rule="evenodd" class="d" d="m1377.2 1025.9l-245.4 25.4c-32.9 3.3-62.7-22.2-66.3-56.9l-29.7-280.1c-1.8-17.1 3.3-34.4 13.9-47.5 10-12.3 24-19.9 39.2-21.4l422.6-42.9c32.9-3.3 62.6 22.2 66.3 56.8l29.6 280.2c1.9 17.1-3.2 34.4-13.8 47.5-9.9 12.2-23.7 19.7-38.9 21.3q-0.2 0.1-0.3 0.1l-33.5 3.1 16.4 92.3zm176.7-22.5c13.9-1.4 26.7-8.3 35.8-19.6 9.8-12 14.5-27.9 12.8-43.7l-29.6-280.2c-3.4-31.9-30.7-55.4-60.9-52.4l-422.6 42.9q-0.1 0-0.2 0c-13.9 1.5-26.5 8.4-35.6 19.6-9.8 12-14.4 28-12.7 43.8l29.6 280.1c3.4 32 30.7 55.5 60.8 52.5l246.8-25.6 152.6 74.2-15.7-88z"/><path class="f" d="m1551.6 678.8l29.6 280.2c3.5 33.2-19.4 62.9-50.8 66.1l-36.3 3.3 16.1 90.2-156.3-76.1-246.1 25.5c-31.5 3.2-60.1-21.4-63.6-54.6l-29.6-280.2c-3.6-33.2 19.3-63 50.8-66.1l422.5-42.9c31.5-3.2 60.1 21.4 63.7 54.6z"/><path class="d" d="m1045.8 1017.6c3.2 30.6 30.7 52.9 61.3 49.7l66.5-7 0.6 4.9-66.5 7.1c-33.4 3.5-63.4-20.8-66.9-54.1l-23.4-220.8 5-0.5z"/><path class="d" d="m1455.3 1094.6l-85.5-41.6 2.1-4.5 85.5 41.7z"/><path fill-rule="evenodd" d="m1232 933.8c-13.6 0-24.7-3.8-33.3-11.2-10.1-8.7-16.1-22.3-17.8-40.5l-0.2-1.8 35.2-7.3 0.2 2c1.3 9.2 3.2 15.6 5.7 19 3.8 5.1 9 7.3 15.7 6.7 7-0.7 11.5-2.9 13.9-7 2.5-4.2 3.1-12.9 1.9-25.9l-10.1-109.7 37.4-3.4 9.9 107.5c1.3 13.9 1.1 25-0.7 32.8-2.5 10.4-7.9 19.1-16.2 26-8.3 6.9-19.8 11.1-34.2 12.4q-3.8 0.4-7.4 0.4zm-47.1-50.4c1.9 16.3 7.4 28.5 16.3 36.3 9.3 8 22 11.3 37.9 9.8 13.5-1.2 24.3-5.1 32-11.5 7.6-6.3 12.7-14.4 14.9-23.9 1.7-7.4 1.9-18 0.7-31.6l-9.6-103.6-29.7 2.8 9.8 105.7c1.3 14.1 0.5 23.3-2.5 28.3-3 5.1-8.7 8.1-16.8 8.8-8.1 0.8-14.6-2-19.2-8.2-2.8-3.7-4.8-9.8-6.1-18.7z"/><path fill-rule="evenodd" d="m1379.6 920.1c-16.3 0-29.7-3.7-40-11-12.6-9-21-23.1-25-41.9l-0.4-2 36.2-6.9 0.5 1.7c2.8 10.4 7.4 17.8 13.5 22.1 6 4.3 14.1 6 23.8 5.1 10.3-0.9 17.9-3.8 22.6-8.5 4.7-4.8 6.8-9.8 6.2-15.4-0.3-3.5-1.5-6.3-3.8-8.5-2.3-2.3-6.3-4.2-11.9-5.6-4-1-13.2-2.6-27.4-4.8-18.7-2.8-32.3-7.3-40.4-13.3-11.5-8.5-17.9-19.8-19.2-33.5-0.8-8.9 0.9-17.5 5.2-25.6 4.3-8.2 11.1-14.7 20.1-19.6 8.9-4.8 20-7.9 33-9.1 21.3-1.9 38.1 1.4 49.8 9.8 11.9 8.5 18.9 20.8 20.9 36.5l0.2 1.9-37.1 5.1-0.4-1.6c-2.1-8-5.6-13.5-10.2-16.5-4.7-3.1-11.6-4.2-20.6-3.4-9.3 0.9-16.5 3.4-21.3 7.7-2.9 2.5-4.1 5.5-3.8 9.2 0.4 3.4 2 6.1 5.2 8.2 4.3 3 14.7 5.7 31.1 8 16.8 2.4 29.6 5.3 37.9 8.8 8.5 3.5 15.5 8.8 20.8 15.8 5.3 7 8.5 16.1 9.5 27 0.9 9.9-1 19.5-5.7 28.6-4.7 9.2-12 16.4-21.6 21.5-9.6 5.1-21.8 8.3-36.5 9.7q-5.8 0.5-11.2 0.5zm-60.7-51.8c3.9 16.9 11.6 29.6 23 37.6 11.7 8.4 28.1 11.7 48.6 9.8 14.1-1.3 25.9-4.4 34.9-9.2 9-4.8 15.7-11.4 20-19.9 4.4-8.4 6.2-17.3 5.3-26.5-0.9-10.1-3.9-18.5-8.7-24.9-4.9-6.5-11.3-11.4-19.2-14.6-8-3.4-20.5-6.2-37-8.6-17.2-2.4-27.9-5.2-32.8-8.6-4-2.8-6.3-6.5-6.7-11.1-0.5-4.9 1.2-9.1 5-12.4 5.5-4.8 13.4-7.7 23.5-8.7 9.9-0.9 17.7 0.5 23.1 4 5.1 3.3 9 9.1 11.3 17.1l30-4.1c-2.2-13.7-8.6-24.5-19-31.9-11-7.9-26.9-11-47.2-9.1-12.5 1.2-23.1 4.1-31.6 8.6-8.3 4.5-14.5 10.6-18.4 18-4 7.5-5.6 15.4-4.8 23.4 1.1 12.6 7.1 22.9 17.6 30.8 7.6 5.6 20.6 9.9 38.7 12.6 14.3 2.2 23.6 3.8 27.8 4.8 6.3 1.7 10.8 3.8 13.7 6.6 2.9 2.9 4.5 6.6 4.9 11 0.6 6.7-1.8 12.9-7.3 18.4-5.4 5.4-13.8 8.7-25.1 9.7-10.6 1-19.5-1-26.4-5.8-6.5-4.6-11.3-12.2-14.5-22.5z"/><path class="e" d="m1236.6 770.6l33.5-3.1 9.8 105.5q1.9 20.8-0.7 32.2-3.6 15-15.6 25-12.1 10-33.1 12-24.7 2.3-39.3-10.3-14.6-12.6-17.1-39.3l31.4-6.6q1.8 14.3 6 19.9 6.3 8.4 17.5 7.4 11.2-1 15.3-7.9 4.1-6.8 2.2-27.1z"/><path class="e" d="m1307.8 877.5l32.5-6.2q4.4 16.2 14.2 23.1 9.7 6.9 25.1 5.5 16.3-1.5 23.9-9.2 7.6-7.6 6.7-16.8-0.5-5.9-4.4-9.8-3.8-3.8-12.7-6.1-6.1-1.5-27.7-4.8-27.7-4.2-39.5-13-16.6-12.3-18.4-32.1-1.2-12.7 5-24.5 6.2-11.7 19.2-18.8 13.1-7.1 32.3-8.8 31.4-2.9 48.6 9.4 17.1 12.3 20 35.2l-33.5 4.6q-3.4-12.7-11-17.7-7.6-4.9-21.8-3.6-14.7 1.3-22.5 8.1-5 4.4-4.4 10.9 0.6 5.9 6 9.6 6.8 4.8 32 8.3 25.1 3.5 37.4 8.7 12.3 5.1 20 15.2 7.6 10.1 9.1 26 1.3 14.3-5.5 27.5-6.8 13.3-20.8 20.7-14 7.4-35.7 9.4-31.6 2.9-49.9-10.1-18.3-13.1-24.2-40.7z"/></svg>