<svg version="1.2" xmlns="http://www.w3.org/2000/svg" viewBox="0 0 640 221" width="640" height="221"><defs><linearGradient id="P" gradientUnits="userSpaceOnUse"/><linearGradient id="g1" x1="86.3" y1="-84.9" x2="303.5" y2="259.4" href="#P"><stop stop-color="#7971f4"/><stop offset="1" stop-color="#ff80ff"/></linearGradient><clipPath clipPathUnits="userSpaceOnUse" id="cp1"><path d="m111.86 120.94h-21.61l-20.4-22.21 20.4-22.21h21.61l-20.5 22.21z"/></clipPath><clipPath clipPathUnits="userSpaceOnUse" id="cp2"><path d="m107.38 97.26h21.6l20.4 22.21-20.4 22.21h-21.6l20.5-22.21z"/></clipPath></defs><style>.a{fill:#fff}.b{fill:url(#g1)}</style><path class="a" d="m246 124h-47.1v-7.5l6.7-1.3v-44.9l-6.7-1.3v-7.6h6.7 12.5 7.6v7.6l-7.6 1.3v44.1h17.7l0.6-9.2h9.6zm18.6 0.9q-7.3 0-11.6-4.6-4.1-4.7-4.1-14.5v-19.4l-5.1-1.3v-7.6h5.1 12.5v28.3q0 5 1.7 7.2 1.8 2.2 5.3 2.2 2.8 0 5-1.1 2.1-1.1 3.5-3.1v-24.6l-5.6-1.3v-7.6h5.6 12.5v37.7l5.6 1.3v7.5h-16.6l-0.8-5.9q-2.2 3.3-5.5 5.1-3.3 1.7-7.5 1.7zm54-0.9h-24.6v-7.5l6.1-1.3v-28.8l-6.7-1.3v-7.6h19.2v37.7l6 1.3zm-6-56.3h-13v-10.7h13zm24.8 57.2q-5.2 0-9.7-1-4.4-1-8.6-2.8l-0.1-13.2h8.7l1.7 6.7q1.5 0.8 3.2 1.2 1.8 0.4 4 0.4 4.2 0 5.9-1.3 1.7-1.4 1.7-3.5 0-1.9-1.8-3.4-1.8-1.5-7.3-2.6-8.2-1.7-12.1-5.3-3.9-3.6-3.9-9.3 0-3.8 1.9-7 2-3.2 6-5.1 4-2 10.3-2 5.2 0 9.6 1.1 4.3 1 7.3 2.6l0.1 12.7h-8.6l-1.4-6.1q-1.1-0.9-2.7-1.3-1.6-0.4-3.6-0.4-3.3 0-5 1.3-1.8 1.4-1.8 3.5 0 1.2 0.6 2.2 0.7 1 2.5 1.9 1.9 0.9 5.4 1.7 8.6 2 12.6 5.3 3.9 3.3 3.9 9.2 0 6.5-4.7 10.5-4.7 4-14.1 4zm75.6-0.9h-26v-7.5l6.7-1.3v-44.1h-11.3l-0.7 7.5h-9.5v-17.2h55.8v17.2h-9.5l-0.7-7.5h-11.5v44.1l6.7 1.3zm33.2 0.9q-6.6 0-11.6-2.9-5-3-7.8-8.2-2.7-5.1-2.7-11.7v-1.7q0-7 2.6-12.3 2.6-5.4 7.3-8.4 4.7-3.1 11.1-3.1 6.3 0 10.6 2.5 4.3 2.5 6.5 7.2 2.3 4.7 2.3 11.3v6.9h-27.4v0.2q0.2 3.1 1.5 5.5 1.3 2.4 3.6 3.7 2.3 1.4 5.6 1.4 3.4 0 6.4-0.9 3-0.9 5.9-2.6l3.3 7.7q-2.8 2.3-7.2 3.9-4.4 1.5-10 1.5zm-9.1-28.9l0.1 0.2h15.5v-1.1q0-2.9-0.7-4.9-0.8-2.1-2.4-3.2-1.7-1.1-4.3-1.1-2.5 0-4.2 1.3-1.7 1.3-2.7 3.6-1 2.3-1.3 5.2zm51.9 28h-24.7v-7.5l6.1-1.3v-49.4l-6.7-1.3v-7.5h19.2v58.2l6.1 1.3zm22.8 0h-24.7v-7.6l6-1.2v-49.4l-6.7-1.3v-7.6h19.3v58.3l6.1 1.2zm20.2 0.9q-6.7 0-11.7-2.9-5-2.9-7.7-8.1-2.7-5.2-2.7-11.8v-1.7q0-6.9 2.5-12.2 2.6-5.4 7.3-8.5 4.7-3 11.1-3 6.4 0 10.6 2.5 4.3 2.5 6.6 7.2 2.2 4.6 2.2 11.3v6.8h-27.3l-0.1 0.3q0.3 3 1.5 5.5 1.3 2.3 3.6 3.7 2.3 1.3 5.6 1.3 3.5 0 6.4-0.8 3.1-0.9 5.9-2.7l3.4 7.8q-2.9 2.3-7.3 3.8-4.3 1.5-9.9 1.5zm-9.2-28.9l0.2 0.2h15.5v-1.1q0-2.8-0.8-4.8-0.7-2.1-2.4-3.2-1.6-1.1-4.2-1.1-2.5 0-4.3 1.3-1.7 1.3-2.7 3.6-0.9 2.3-1.3 5.1zm69.2 28h-40.2v-7.3l24.2-30.4h-12.5l-1.5 8h-9.2v-16.7h38.2v8l-22.8 29.5h13.2l1.8-8.6h8.8z"/><path class="a" d="m214.9 148.5h-8.5v6.4h7.5v2.6h-7.5v8.5h-3.4v-20h12.3zm2 2.1h3.2v10.7q0 1.4 0.6 2 0.5 0.6 1.6 0.6 1.1 0 2-0.7 1-0.6 1.6-1.5v-11.1h3.2v15.3h-2.8l-0.2-1.9q-0.8 1.1-2.1 1.7-1.3 0.6-2.7 0.6-2.2 0-3.3-1.2-1.1-1.2-1.1-3.4zm13.9-6.1h7.8v17.3q0 1 0.7 1.5 0.6 0.4 1.7 0.4 0.6 0 1.2-0.1 0.6-0.2 1.2-0.4l0.8 2.3q-0.7 0.3-1.7 0.6-1 0.2-2.2 0.2-2.3 0-3.6-1.2-1.3-1.3-1.3-3.6v-14.6h-4.6zm15 0h7.9v17.3q0 1 0.6 1.5 0.6 0.4 1.7 0.4 0.6 0 1.2-0.1 0.6-0.2 1.2-0.4l0.8 2.3q-0.7 0.3-1.7 0.6-0.9 0.2-2.2 0.2-2.3 0-3.6-1.3-1.3-1.3-1.3-3.5v-14.6h-4.6zm44.5 15.8q0 1.8-0.9 3.1-0.9 1.4-2.6 2.2-1.7 0.7-4.1 0.7-2.5 0-4.3-0.7-1.8-0.7-3.1-2l1.8-2q1.1 1 2.5 1.5 1.3 0.6 3.1 0.6 1.1 0 2-0.4 1-0.3 1.5-1 0.6-0.8 0.6-1.9 0-0.8-0.4-1.4-0.3-0.7-1.2-1.2-0.9-0.4-2.5-0.9-2.1-0.6-3.6-1.4-1.4-0.8-2.1-1.9-0.8-1.1-0.8-2.7 0-1.6 0.9-2.8 0.9-1.2 2.5-1.9 1.5-0.7 3.5-0.7 2.2 0 3.8 0.6 1.6 0.7 2.9 1.8l-1.8 2q-1-0.9-2.2-1.3-1.2-0.4-2.5-0.4-1 0-1.8 0.3-0.8 0.2-1.3 0.8-0.5 0.6-0.5 1.4 0 0.8 0.4 1.4 0.5 0.5 1.5 1 1 0.5 2.8 1 1.7 0.5 3 1.2 1.3 0.7 2.1 1.9 0.8 1.2 0.8 3.1zm13.3 2.7l1.2 2.1q-0.9 0.6-2 0.9-1.2 0.3-2.5 0.3-2.7 0-4-1.3-1.4-1.4-1.4-3.7v-8.3h-3.4v-2.4h3.4v-3.4l3.2-0.4v3.8h5.2l-0.4 2.4h-4.8v8.3q0 1.2 0.6 1.8 0.7 0.6 2.1 0.6 0.8 0 1.5-0.2 0.7-0.2 1.3-0.5zm15.1-7.6v6.8q0 0.9 0.3 1.3 0.3 0.4 0.9 0.6l-0.7 2.2q-1.2-0.1-2-0.6-0.8-0.5-1.2-1.5-0.9 1.1-2.2 1.6-1.2 0.5-2.7 0.5-2.3 0-3.7-1.3-1.3-1.3-1.3-3.4 0-2.4 1.8-3.8 1.9-1.3 5.4-1.3h2.2v-1q0-1.4-0.9-2.1-0.9-0.6-2.5-0.6-0.7 0-1.8 0.2-1.1 0.2-2.3 0.6l-0.8-2.3q1.5-0.6 2.9-0.8 1.3-0.3 2.5-0.3 3.1 0 4.6 1.4 1.5 1.3 1.5 3.8zm-6.6 8.5q1 0 1.9-0.5 0.9-0.5 1.5-1.4v-3.4h-1.8q-2.3 0-3.2 0.7-1 0.8-1 2.1 0 1.2 0.6 1.9 0.7 0.6 2 0.6zm17.3-0.2q1.1 0 2-0.4 0.9-0.4 1.8-1l1.5 2.1q-1 0.9-2.4 1.4-1.5 0.5-3 0.5-2.3 0-4-1-1.7-1-2.6-2.8-0.8-1.8-0.8-4.1 0-2.4 0.8-4.2 0.9-1.8 2.6-2.9 1.7-1.1 4.1-1.1 1.5 0 2.9 0.5 1.3 0.5 2.4 1.4l-1.5 2q-0.9-0.6-1.9-0.9-0.9-0.4-1.9-0.4-1.8 0-2.9 1.4-1.2 1.3-1.2 4.2 0 1.9 0.5 3 0.6 1.2 1.5 1.7 0.9 0.6 2.1 0.6zm17.4-13.1h3.7l-6.1 6.9 6.8 8.4h-4l-6.6-8.3zm-9.6-6.2l3.3-0.4v21.9h-3.3zm41.7 1.4h3l-2.7 20h-4l-1.9-14.8-2.1 14.8h-4l-2.5-20h3.2l1.6 16.8 2.1-14.5h3.5l2 14.5zm16.1 13.4h-10.2q0.1 1.5 0.7 2.5 0.6 1 1.5 1.5 0.9 0.5 2 0.5 1.1 0 2.1-0.4 1-0.3 1.9-1l1.4 2q-1 0.8-2.5 1.4-1.4 0.5-3.1 0.5-2.3 0-4-1-1.6-1-2.5-2.9-0.8-1.8-0.8-4.1 0-2.4 0.8-4.2 0.9-1.8 2.4-2.9 1.6-1 3.8-1 2 0 3.5 0.9 1.4 0.9 2.2 2.6 0.9 1.7 0.9 4.1 0 0.4-0.1 0.8 0 0.4 0 0.7zm-6.5-6.7q-1.5 0-2.5 1.1-1 1.1-1.2 3.4h7.1q0-2.2-0.9-3.4-0.9-1.1-2.5-1.1zm11.9-8.5v8.3q0.8-1 1.9-1.6 1-0.6 2.3-0.6 2 0 3.3 1 1.2 1 1.8 2.8 0.6 1.8 0.6 4.2 0 2.3-0.7 4.2-0.7 1.8-2 2.8-1.4 1.1-3.4 1.1-2.5 0-4-1.9l-0.2 1.5h-2.8v-21.5zm3 19.8q1.6 0 2.5-1.4 0.9-1.3 0.9-4.2 0-2-0.3-3.2-0.4-1.2-1.1-1.8-0.7-0.6-1.7-0.6-1.1 0-1.9 0.7-0.9 0.7-1.4 1.5v7.2q0.5 0.8 1.2 1.3 0.8 0.5 1.8 0.5zm33.9-8.1q0-2.3-0.5-3.8-0.4-1.4-1.2-2.2-0.8-0.8-1.8-1-0.9-0.3-1.9-0.3h-1.9v14.9h1.9q1 0 2-0.3 1-0.4 1.7-1.2 0.8-0.8 1.3-2.3 0.4-1.5 0.4-3.8zm3.5 0q0 2.5-0.5 4.3-0.5 1.7-1.4 2.9-1 1.1-2.2 1.8-1.2 0.6-2.5 0.9-1.3 0.3-2.7 0.3h-4.9v-20.1h4.6q1.8 0 3.6 0.4 1.7 0.4 3 1.5 1.4 1 2.2 3 0.8 1.9 0.8 5zm14.2 3.5h-10.1q0.1 1.6 0.6 2.6 0.6 1 1.5 1.5 0.9 0.4 2 0.4 1.2 0 2.1-0.3 1-0.4 2-1l1.4 1.9q-1.1 0.9-2.5 1.4-1.5 0.5-3.1 0.5-2.4 0-4-1-1.7-1-2.5-2.8-0.9-1.8-0.9-4.2 0-2.3 0.9-4.1 0.8-1.8 2.4-2.9 1.5-1.1 3.7-1.1 2 0 3.5 1 1.5 0.9 2.3 2.6 0.8 1.7 0.8 4.1 0 0.4 0 0.8 0 0.4-0.1 0.6zm-6.5-6.7q-1.5 0-2.5 1.1-1 1.1-1.1 3.4h7q0-2.1-0.9-3.3-0.8-1.2-2.5-1.2zm18.8-2h3.3l-5.4 15.4h-3.8l-5.4-15.4h3.5l3.9 12.7zm17.8 8.7h-10.2q0.1 1.5 0.7 2.5 0.5 1 1.5 1.5 0.9 0.4 2 0.4 1.1 0 2.1-0.3 0.9-0.4 1.9-1l1.4 1.9q-1.1 0.9-2.5 1.4-1.4 0.6-3.1 0.6-2.3 0-4-1.1-1.6-1-2.5-2.8-0.8-1.8-0.8-4.2 0-2.3 0.8-4.1 0.8-1.8 2.4-2.9 1.6-1 3.7-1 2.1 0 3.6 0.9 1.4 0.9 2.2 2.6 0.8 1.7 0.8 4.1 0 0.4 0 0.8 0 0.4 0 0.7zm-6.5-6.7q-1.6 0-2.6 1-0.9 1.1-1.1 3.4h7.1q-0.1-2.1-0.9-3.3-0.9-1.1-2.5-1.1zm7.5-8.2h7.9v17.3q0 1.1 0.6 1.5 0.7 0.4 1.7 0.4 0.7 0 1.3-0.1 0.5-0.2 1.1-0.4l0.8 2.3q-0.6 0.3-1.6 0.6-1 0.3-2.3 0.3-2.3 0-3.6-1.3-1.3-1.3-1.3-3.6v-14.6h-4.6zm22.3 5.7q2.2 0 3.8 1 1.5 1 2.3 2.8 0.8 1.8 0.8 4.3 0 2.4-0.8 4.2-0.8 1.8-2.4 2.9-1.5 1-3.7 1-2.2 0-3.8-1-1.5-1-2.3-2.8-0.8-1.8-0.8-4.3 0-2.4 0.8-4.2 0.8-1.8 2.3-2.8 1.6-1.1 3.8-1.1zm0 2.6q-1.8 0-2.6 1.3-0.9 1.4-0.9 4.2 0 2.8 0.8 4.2 0.9 1.3 2.7 1.3 1.7 0 2.6-1.3 0.9-1.4 0.9-4.2 0-2.8-0.9-4.2-0.8-1.3-2.6-1.3zm16.4-2.6q2 0 3.2 1 1.2 1 1.8 2.8 0.5 1.8 0.5 4.3 0 2.3-0.6 4.1-0.7 1.9-2 2.9-1.3 1.1-3.3 1.1-2.4 0-3.9-1.7v7.2l-3.2 0.3v-21.5h2.8l0.2 1.9q0.9-1.2 2-1.8 1.2-0.6 2.5-0.6zm-0.9 2.6q-1.1 0-2 0.6-0.8 0.7-1.4 1.5v7.2q0.6 0.8 1.3 1.3 0.8 0.4 1.8 0.4 1.6 0 2.5-1.3 0.8-1.3 0.8-4.2 0-2-0.3-3.2-0.4-1.2-1-1.8-0.7-0.5-1.7-0.5zm21.3 6.6h-10.2q0.1 1.5 0.7 2.5 0.5 1 1.5 1.5 0.9 0.4 2 0.4 1.1 0 2.1-0.3 0.9-0.4 1.9-1l1.4 1.9q-1.1 0.9-2.5 1.4-1.4 0.6-3.1 0.6-2.4 0-4-1.1-1.6-1-2.5-2.8-0.9-1.8-0.9-4.2 0-2.3 0.9-4.1 0.8-1.8 2.4-2.9 1.6-1.1 3.7-1.1 2.1 0 3.5 1 1.5 0.9 2.3 2.6 0.8 1.7 0.8 4.1 0 0.4 0 0.8 0 0.4 0 0.7zm-6.5-6.7q-1.6 0-2.6 1-1 1.1-1.1 3.4h7.1q-0.1-2.1-0.9-3.3-0.9-1.1-2.5-1.1zm17.4 13.3h-8.6v-2.4h2.2v-10.6h-2.2v-2.3h4.7l0.6 3.5q0.9-1.9 2.1-2.9 1.3-1 3.3-1 0.7 0 1.2 0.1 0.6 0.1 1.1 0.3l-1 2.7q-0.4-0.1-0.8-0.2-0.5 0-0.9 0-1.7 0-2.9 1.2-1.2 1.3-1.9 3.6v5.6h3.1zm3.8-9.6h-2.3v-3.8l0.4-1.9h2.5z"/><path class="b" d="m46.5 70.1c0-12.6 10.2-22.9 22.9-22.9h77.3c12.7 0 22.9 10.3 22.9 22.9v77.3c0 12.7-10.2 23-22.9 23h-77.3c-12.7 0-22.9-10.3-22.9-23z"/><path class="a" d="m111.9 120.9h-21.6l-20.4-22.2 20.4-22.2h21.6l-20.5 22.2z"/><path class="a" d="m107.2 97.6h21.6l20.4 22.2-20.4 22.2h-21.6l20.5-22.2z"/><g clip-path="url(#cp1)"></g><g clip-path="url(#cp2)"></g></svg>