<svg width="107" height="21" viewBox="0 0 107 21" fill="none" xmlns="http://www.w3.org/2000/svg">
<path fill-rule="evenodd" clip-rule="evenodd" d="M12 2.5H8V6.5H4H0V10.5V14.5V18.5H4H8V14.5H12H16V10.5V6.5V2.5H12ZM4 14.5H8V10.5H12V6.5H8V10.5H4V14.5Z" fill="white"/>
<path d="M24.4375 17V15.6328L25.6484 15.3984V7.23438L24.4375 7V5.625H25.6484H27.9297H29.3047V7L27.9297 7.23438V15.25H31.1406L31.25 13.5859H32.9922V17H24.4375ZM37.3438 17.1641C36.4531 17.1641 35.7526 16.8828 35.2422 16.3203C34.737 15.7526 34.4844 14.8724 34.4844 13.6797V10.1562L33.5547 9.92188V8.54688H34.4844H36.7656V13.6953C36.7656 14.2995 36.8698 14.7344 37.0781 15C37.2917 15.2604 37.612 15.3906 38.0391 15.3906C38.3776 15.3906 38.6771 15.3255 38.9375 15.1953C39.1979 15.0599 39.4115 14.8698 39.5781 14.625V10.1562L38.5703 9.92188V8.54688H39.5781H41.8594V15.3984L42.875 15.6328V17H39.8594L39.7031 15.9297C39.4375 16.3255 39.1042 16.6302 38.7031 16.8438C38.3021 17.0573 37.849 17.1641 37.3438 17.1641ZM43.6562 17V15.6328L44.7578 15.3984V10.1562L43.5391 9.92188V8.54688H47.0391V15.3984L48.1328 15.6328V17H43.6562ZM44.6797 6.75781V4.8125H47.0391V6.75781H44.6797ZM52.5234 17.1641C51.8932 17.1641 51.3047 17.1042 50.7578 16.9844C50.2161 16.8646 49.6953 16.6927 49.1953 16.4688L49.1719 14.0781H50.7578L51.0625 15.2969C51.2396 15.3854 51.4323 15.4557 51.6406 15.5078C51.8542 15.5599 52.0964 15.5859 52.3672 15.5859C52.8776 15.5859 53.237 15.5026 53.4453 15.3359C53.6536 15.1693 53.7578 14.9609 53.7578 14.7109C53.7578 14.4766 53.6458 14.2708 53.4219 14.0938C53.2031 13.9115 52.763 13.7526 52.1016 13.6172C51.1016 13.4089 50.3646 13.0859 49.8906 12.6484C49.4167 12.2109 49.1797 11.651 49.1797 10.9688C49.1797 10.5 49.2969 10.0729 49.5312 9.6875C49.7708 9.30208 50.1328 8.99219 50.6172 8.75781C51.1068 8.52344 51.7318 8.40625 52.4922 8.40625C53.1276 8.40625 53.7083 8.46875 54.2344 8.59375C54.7656 8.71354 55.2109 8.8724 55.5703 9.07031L55.5938 11.3828H54.0156L53.7734 10.2734C53.6328 10.1693 53.4661 10.0911 53.2734 10.0391C53.0859 9.98698 52.8724 9.96094 52.6328 9.96094C52.2318 9.96094 51.9245 10.0417 51.7109 10.2031C51.4974 10.3646 51.3906 10.5729 51.3906 10.8281C51.3906 10.974 51.4271 11.1094 51.5 11.2344C51.5781 11.3594 51.7292 11.4766 51.9531 11.5859C52.1771 11.6953 52.5026 11.7995 52.9297 11.8984C53.9766 12.138 54.7396 12.4583 55.2188 12.8594C55.6979 13.2552 55.9375 13.8125 55.9375 14.5312C55.9375 15.3177 55.651 15.9531 55.0781 16.4375C54.5104 16.9219 53.6589 17.1641 52.5234 17.1641ZM63.4609 17V15.6328L64.6797 15.3984V7.38281H62.6094L62.4844 8.74219H60.7578V5.625H70.9062V8.74219H69.1719L69.0469 7.38281H66.9609V15.3984L68.1875 15.6328V17H63.4609ZM75.1797 17.1641C74.3724 17.1641 73.6667 16.987 73.0625 16.6328C72.4583 16.2734 71.9896 15.7812 71.6562 15.1562C71.3281 14.5312 71.1641 13.8177 71.1641 13.0156V12.7031C71.1641 11.8646 71.3203 11.1224 71.6328 10.4766C71.9453 9.82552 72.3854 9.3151 72.9531 8.94531C73.526 8.57031 74.2005 8.38542 74.9766 8.39062C75.7422 8.39062 76.3854 8.54167 76.9062 8.84375C77.4271 9.14583 77.8229 9.58073 78.0938 10.1484C78.3646 10.7161 78.5 11.4036 78.5 12.2109V13.4531H73.5312L73.5156 13.5C73.5469 13.8698 73.638 14.2005 73.7891 14.4922C73.9453 14.7786 74.1641 15.0052 74.4453 15.1719C74.7266 15.3333 75.0677 15.4141 75.4688 15.4141C75.8854 15.4141 76.2734 15.362 76.6328 15.2578C76.9974 15.1484 77.3516 14.9896 77.6953 14.7812L78.3125 16.1875C77.9635 16.4688 77.5234 16.7031 76.9922 16.8906C76.4661 17.0729 75.862 17.1641 75.1797 17.1641ZM73.5469 11.9453H76.3672V11.7422C76.3672 11.3984 76.3203 11.1042 76.2266 10.8594C76.138 10.6094 75.9922 10.4167 75.7891 10.2812C75.5911 10.1458 75.3333 10.0781 75.0156 10.0781C74.7135 10.0781 74.4583 10.1589 74.25 10.3203C74.0417 10.4766 73.8776 10.6927 73.7578 10.9688C73.6432 11.2448 73.5651 11.5573 73.5234 11.9062L73.5469 11.9453ZM79.4297 17V15.6328L80.5312 15.3984V6.42188L79.3125 6.1875V4.8125H82.8125V15.3984L83.9141 15.6328V17H79.4297ZM84.5391 17V15.6328L85.6406 15.3984V6.42188L84.4219 6.1875V4.8125H87.9219V15.3984L89.0234 15.6328V17H84.5391ZM93.6641 17.1641C92.8568 17.1641 92.151 16.987 91.5469 16.6328C90.9427 16.2734 90.474 15.7812 90.1406 15.1562C89.8125 14.5312 89.6484 13.8177 89.6484 13.0156V12.7031C89.6484 11.8646 89.8047 11.1224 90.1172 10.4766C90.4297 9.82552 90.8698 9.3151 91.4375 8.94531C92.0104 8.57031 92.6849 8.38542 93.4609 8.39062C94.2266 8.39062 94.8698 8.54167 95.3906 8.84375C95.9115 9.14583 96.3073 9.58073 96.5781 10.1484C96.849 10.7161 96.9844 11.4036 96.9844 12.2109V13.4531H92.0156L92 13.5C92.0312 13.8698 92.1224 14.2005 92.2734 14.4922C92.4297 14.7786 92.6484 15.0052 92.9297 15.1719C93.2109 15.3333 93.5521 15.4141 93.9531 15.4141C94.3698 15.4141 94.7578 15.362 95.1172 15.2578C95.4818 15.1484 95.8359 14.9896 96.1797 14.7812L96.7969 16.1875C96.4479 16.4688 96.0078 16.7031 95.4766 16.8906C94.9505 17.0729 94.3464 17.1641 93.6641 17.1641ZM92.0312 11.9453H94.8516V11.7422C94.8516 11.3984 94.8047 11.1042 94.7109 10.8594C94.6224 10.6094 94.4766 10.4167 94.2734 10.2812C94.0755 10.1458 93.8177 10.0781 93.5 10.0781C93.1979 10.0781 92.9427 10.1589 92.7344 10.3203C92.526 10.4766 92.362 10.6927 92.2422 10.9688C92.1276 11.2448 92.0495 11.5573 92.0078 11.9062L92.0312 11.9453ZM98.2344 17V15.6562L102.633 10.1406H100.352L100.094 11.5859H98.4219V8.54688H105.367V10.0078L101.219 15.3672H103.609L103.945 13.8125H105.547V17H98.2344Z" fill="white"/>
</svg>
